<svg width="153" height="128" viewBox="0 0 153 128" fill="none" xmlns="http://www.w3.org/2000/svg">
<path d="M11.2852 118.027H4.67578L3.29297 122H0.210938L6.65625 104.938H9.31641L15.7734 122H12.6797L11.2852 118.027ZM5.50781 115.637H10.4531L7.98047 108.559L5.50781 115.637ZM16.9102 115.566C16.9102 113.613 17.3633 112.047 18.2695 110.867C19.1758 109.68 20.3906 109.086 21.9141 109.086C23.2578 109.086 24.3438 109.555 25.1719 110.492V104H28.0195V122H25.4414L25.3008 120.688C24.4492 121.719 23.3125 122.234 21.8906 122.234C20.4062 122.234 19.2031 121.637 18.2812 120.441C17.3672 119.246 16.9102 117.621 16.9102 115.566ZM19.7578 115.812C19.7578 117.102 20.0039 118.109 20.4961 118.836C20.9961 119.555 21.7031 119.914 22.6172 119.914C23.7812 119.914 24.6328 119.395 25.1719 118.355V112.941C24.6484 111.926 23.8047 111.418 22.6406 111.418C21.7188 111.418 21.0078 111.785 20.5078 112.52C20.0078 113.246 19.7578 114.344 19.7578 115.812ZM30.457 115.566C30.457 113.613 30.9102 112.047 31.8164 110.867C32.7227 109.68 33.9375 109.086 35.4609 109.086C36.8047 109.086 37.8906 109.555 38.7188 110.492V104H41.5664V122H38.9883L38.8477 120.688C37.9961 121.719 36.8594 122.234 35.4375 122.234C33.9531 122.234 32.75 121.637 31.8281 120.441C30.9141 119.246 30.457 117.621 30.457 115.566ZM33.3047 115.812C33.3047 117.102 33.5508 118.109 34.043 118.836C34.543 119.555 35.25 119.914 36.1641 119.914C37.3281 119.914 38.1797 119.395 38.7188 118.355V112.941C38.1953 111.926 37.3516 111.418 36.1875 111.418C35.2656 111.418 34.5547 111.785 34.0547 112.52C33.5547 113.246 33.3047 114.344 33.3047 115.812ZM57.0586 115.426H53.7539V122H50.7891V104.938H56.7891C58.7578 104.938 60.2773 105.379 61.3477 106.262C62.418 107.145 62.9531 108.422 62.9531 110.094C62.9531 111.234 62.6758 112.191 62.1211 112.965C61.5742 113.73 60.8086 114.32 59.8242 114.734L63.6562 121.848V122H60.4805L57.0586 115.426ZM53.7539 113.047H56.8008C57.8008 113.047 58.582 112.797 59.1445 112.297C59.707 111.789 59.9883 111.098 59.9883 110.223C59.9883 109.309 59.7266 108.602 59.2031 108.102C58.6875 107.602 57.9141 107.344 56.8828 107.328H53.7539V113.047ZM71.0742 122.234C69.2695 122.234 67.8047 121.668 66.6797 120.535C65.5625 119.395 65.0039 117.879 65.0039 115.988V115.637C65.0039 114.371 65.2461 113.242 65.7305 112.25C66.2227 111.25 66.9102 110.473 67.793 109.918C68.6758 109.363 69.6602 109.086 70.7461 109.086C72.4727 109.086 73.8047 109.637 74.7422 110.738C75.6875 111.84 76.1602 113.398 76.1602 115.414V116.562H67.875C67.9609 117.609 68.3086 118.438 68.918 119.047C69.5352 119.656 70.3086 119.961 71.2383 119.961C72.543 119.961 73.6055 119.434 74.4258 118.379L75.9609 119.844C75.4531 120.602 74.7734 121.191 73.9219 121.613C73.0781 122.027 72.1289 122.234 71.0742 122.234ZM70.7344 111.371C69.9531 111.371 69.3203 111.645 68.8359 112.191C68.3594 112.738 68.0547 113.5 67.9219 114.477H73.3477V114.266C73.2852 113.312 73.0312 112.594 72.5859 112.109C72.1406 111.617 71.5234 111.371 70.7344 111.371ZM81.0586 109.32L81.1406 110.645C82.0312 109.605 83.25 109.086 84.7969 109.086C86.4922 109.086 87.6523 109.734 88.2773 111.031C89.1992 109.734 90.4961 109.086 92.168 109.086C93.5664 109.086 94.6055 109.473 95.2852 110.246C95.9727 111.02 96.3242 112.16 96.3398 113.668V122H93.4922V113.75C93.4922 112.945 93.3164 112.355 92.9648 111.98C92.6133 111.605 92.0312 111.418 91.2188 111.418C90.5703 111.418 90.0391 111.594 89.625 111.945C89.2188 112.289 88.9336 112.742 88.7695 113.305L88.7812 122H85.9336V113.656C85.8945 112.164 85.1328 111.418 83.6484 111.418C82.5078 111.418 81.6992 111.883 81.2227 112.812V122H78.375V109.32H81.0586ZM102.293 122H99.4453V109.32H102.293V122ZM99.2695 106.027C99.2695 105.59 99.4062 105.227 99.6797 104.938C99.9609 104.648 100.359 104.504 100.875 104.504C101.391 104.504 101.789 104.648 102.07 104.938C102.352 105.227 102.492 105.59 102.492 106.027C102.492 106.457 102.352 106.816 102.07 107.105C101.789 107.387 101.391 107.527 100.875 107.527C100.359 107.527 99.9609 107.387 99.6797 107.105C99.4062 106.816 99.2695 106.457 99.2695 106.027ZM108.047 109.32L108.129 110.785C109.066 109.652 110.297 109.086 111.82 109.086C114.461 109.086 115.805 110.598 115.852 113.621V122H113.004V113.785C113.004 112.98 112.828 112.387 112.477 112.004C112.133 111.613 111.566 111.418 110.777 111.418C109.629 111.418 108.773 111.938 108.211 112.977V122H105.363V109.32H108.047ZM118.23 115.566C118.23 113.613 118.684 112.047 119.59 110.867C120.496 109.68 121.711 109.086 123.234 109.086C124.578 109.086 125.664 109.555 126.492 110.492V104H129.34V122H126.762L126.621 120.688C125.77 121.719 124.633 122.234 123.211 122.234C121.727 122.234 120.523 121.637 119.602 120.441C118.688 119.246 118.23 117.621 118.23 115.566ZM121.078 115.812C121.078 117.102 121.324 118.109 121.816 118.836C122.316 119.555 123.023 119.914 123.938 119.914C125.102 119.914 125.953 119.395 126.492 118.355V112.941C125.969 111.926 125.125 111.418 123.961 111.418C123.039 111.418 122.328 111.785 121.828 112.52C121.328 113.246 121.078 114.344 121.078 115.812ZM137.895 122.234C136.09 122.234 134.625 121.668 133.5 120.535C132.383 119.395 131.824 117.879 131.824 115.988V115.637C131.824 114.371 132.066 113.242 132.551 112.25C133.043 111.25 133.73 110.473 134.613 109.918C135.496 109.363 136.48 109.086 137.566 109.086C139.293 109.086 140.625 109.637 141.562 110.738C142.508 111.84 142.98 113.398 142.98 115.414V116.562H134.695C134.781 117.609 135.129 118.438 135.738 119.047C136.355 119.656 137.129 119.961 138.059 119.961C139.363 119.961 140.426 119.434 141.246 118.379L142.781 119.844C142.273 120.602 141.594 121.191 140.742 121.613C139.898 122.027 138.949 122.234 137.895 122.234ZM137.555 111.371C136.773 111.371 136.141 111.645 135.656 112.191C135.18 112.738 134.875 113.5 134.742 114.477H140.168V114.266C140.105 113.312 139.852 112.594 139.406 112.109C138.961 111.617 138.344 111.371 137.555 111.371ZM151.84 111.922C151.465 111.859 151.078 111.828 150.68 111.828C149.375 111.828 148.496 112.328 148.043 113.328V122H145.195V109.32H147.914L147.984 110.738C148.672 109.637 149.625 109.086 150.844 109.086C151.25 109.086 151.586 109.141 151.852 109.25L151.84 111.922Z" fill="#2E2E2E"/>
<g filter="url(#filter0_d_360_1106)">
<circle cx="77" cy="48" r="36" fill="#36A900"/>
<path d="M91.1674 47H78.3341V34.1667C78.3341 33.8572 78.2112 33.5605 77.9924 33.3417C77.7736 33.1229 77.4768 33 77.1674 33C76.858 33 76.5613 33.1229 76.3425 33.3417C76.1237 33.5605 76.0008 33.8572 76.0008 34.1667V47H63.1674C62.858 47 62.5613 47.1229 62.3425 47.3417C62.1237 47.5605 62.0008 47.8572 62.0008 48.1667C61.995 48.3183 62.0218 48.4694 62.0794 48.6098C62.137 48.7502 62.224 48.8766 62.3345 48.9805C62.4451 49.0844 62.5766 49.1635 62.7203 49.2122C62.864 49.261 63.0165 49.2785 63.1674 49.2633H76.0008V62.1667C76.0008 62.4761 76.1237 62.7728 76.3425 62.9916C76.5613 63.2104 76.858 63.3333 77.1674 63.3333C77.4768 63.3333 77.7736 63.2104 77.9924 62.9916C78.2112 62.7728 78.3341 62.4761 78.3341 62.1667V49.3333H91.1674C91.4769 49.3333 91.7736 49.2104 91.9924 48.9916C92.2112 48.7728 92.3341 48.4761 92.3341 48.1667C92.3341 47.8572 92.2112 47.5605 91.9924 47.3417C91.7736 47.1229 91.4769 47 91.1674 47Z" fill="white"/>
</g>
<defs>
<filter id="filter0_d_360_1106" x="25" y="0" width="104" height="104" filterUnits="userSpaceOnUse" color-interpolation-filters="sRGB">
<feFlood flood-opacity="0" result="BackgroundImageFix"/>
<feColorMatrix in="SourceAlpha" type="matrix" values="0 0 0 0 0 0 0 0 0 0 0 0 0 0 0 0 0 0 127 0" result="hardAlpha"/>
<feOffset dy="4"/>
<feGaussianBlur stdDeviation="8"/>
<feColorMatrix type="matrix" values="0 0 0 0 0 0 0 0 0 0 0 0 0 0 0 0 0 0 0.2 0"/>
<feBlend mode="normal" in2="BackgroundImageFix" result="effect1_dropShadow_360_1106"/>
<feBlend mode="normal" in="SourceGraphic" in2="effect1_dropShadow_360_1106" result="shape"/>
</filter>
</defs>
</svg>
