<svg width="80" height="80" viewBox="0 0 80 80" fill="none" xmlns="http://www.w3.org/2000/svg">
<circle cx="40" cy="40" r="40" fill="#428BC1"/>
<path d="M30 61.1429C29.6211 61.1429 29.2578 60.9923 28.9898 60.7244C28.7219 60.4565 28.5714 60.0932 28.5714 59.7143V54H26.4286C24.7242 53.9981 23.0902 53.3202 21.885 52.115C20.6798 50.9098 20.0019 49.2758 20 47.5714V30.4286C20.0019 28.7242 20.6798 27.0902 21.885 25.885C23.0902 24.6798 24.7242 24.0019 26.4286 24H53.5714C55.2758 24.0019 56.9098 24.6798 58.115 25.885C59.3202 27.0902 59.9981 28.7242 60 30.4286V47.5714C59.9981 49.2758 59.3202 50.9098 58.115 52.115C56.9098 53.3202 55.2758 53.9981 53.5714 54H39.0839L30.9152 60.8116C30.6581 61.0254 30.3344 61.1426 30 61.1429Z" fill="white"/>
</svg>
