<svg width="24" height="25" viewBox="0 0 24 25" fill="none" xmlns="http://www.w3.org/2000/svg">
<g clip-path="url(#clip0_271_477)">
<path d="M11.9802 0.00334988C11.9802 0.00334988 19.0414 -0.313525 22.7851 6.7841H11.3793C11.3793 6.7841 9.22683 6.71472 7.38811 9.32604C6.85992 10.4221 6.29217 11.5511 6.9293 13.7762C6.01148 12.2212 2.05664 5.33491 2.05664 5.33491C2.05664 5.33491 4.84617 0.283944 11.9801 0.00334988H11.9802Z" fill="#EF3F36"/>
<path d="M22.4187 18.0213C22.4187 18.0213 19.1604 24.2969 11.145 23.9866C12.1354 22.2732 16.8495 14.1093 16.8495 14.1093C16.8495 14.1093 17.9885 12.2804 16.6449 9.38196C15.9614 8.37508 15.2649 7.32199 13.0201 6.76071C14.8259 6.7443 22.7654 6.76071 22.7654 6.76071C22.7654 6.76071 25.7397 11.7027 22.4187 18.0213Z" fill="#FCD900"/>
<path d="M1.59132 18.071C1.59132 18.071 -2.21503 12.1123 2.06335 5.32495C3.05044 7.03832 7.76456 15.2023 7.76456 15.2023C7.76456 15.2023 8.78138 17.1038 11.9604 17.3876C13.1721 17.2985 14.4331 17.2226 16.0442 15.5621C15.156 17.1335 11.1713 24 11.1713 24C11.1713 24 5.40085 24.1057 1.59122 18.071H1.59132Z" fill="#61BC5B"/>
<path d="M11.1418 24.0463L12.7462 17.3514C12.7462 17.3514 14.5091 17.2126 15.9881 15.5918C15.0703 17.2062 11.1418 24.0463 11.1418 24.0463Z" fill="#5AB055"/>
<path d="M6.60596 12.0991C6.60596 9.14783 8.9994 6.75439 11.9506 6.75439C14.9019 6.75439 17.2953 9.14783 17.2953 12.0991C17.2953 15.0504 14.9019 17.4438 11.9506 17.4438C8.9994 17.4405 6.60596 15.0504 6.60596 12.0991Z" fill="white"/>
<path d="M7.50049 12.099C7.50049 9.6429 9.49118 7.64893 11.9506 7.64893C14.4067 7.64893 16.4006 9.63962 16.4006 12.099C16.4006 14.5551 14.4101 16.5491 11.9506 16.5491C9.49446 16.5491 7.50049 14.5551 7.50049 12.099Z" fill="url(#paint0_linear_271_477)"/>
<path d="M22.7621 6.76418L16.1563 8.702C16.1563 8.702 15.1593 7.23949 13.0168 6.76418C14.8754 6.75424 22.7621 6.76418 22.7621 6.76418Z" fill="#EACA05"/>
<path d="M6.80057 13.5317C5.87283 11.9239 2.05664 5.33472 2.05664 5.33472L6.94907 10.1743C6.94907 10.1743 6.44723 11.2076 6.63548 12.6865L6.80048 13.5317H6.80057Z" fill="#DF3A32"/>
</g>
<defs>
<linearGradient id="paint0_linear_271_477" x1="11.9504" y1="7.71176" x2="11.9504" y2="16.2812" gradientUnits="userSpaceOnUse">
<stop stop-color="#86BBE5"/>
<stop offset="1" stop-color="#1072BA"/>
</linearGradient>
<clipPath id="clip0_271_477">
<rect width="24" height="24.0938" fill="white"/>
</clipPath>
</defs>
</svg>
