<svg width="24" height="25" viewBox="0 0 24 25" fill="none" xmlns="http://www.w3.org/2000/svg">
<g clip-path="url(#clip0_271_323)">
<path d="M19.3875 2.30615C18.7875 3.00928 18.5063 4.58428 19.1156 6.1874C19.725 7.79053 20.6625 7.44365 21.2438 9.0749C22.0125 11.2312 21.6563 14.128 21.6563 14.128C21.6563 14.128 22.5844 16.8093 23.2313 13.9593C24.6656 8.60615 19.3875 3.62803 19.3875 2.30615Z" fill="url(#paint0_radial_271_323)"/>
<path d="M12.0375 24.5344C18.2156 24.5344 23.2125 19.5094 23.2125 13.3032C23.2125 7.09693 18.2062 2.0813 12.0375 2.0813C5.86871 2.0813 0.871839 7.1063 0.871839 13.3032C0.862464 19.5094 5.86871 24.5344 12.0375 24.5344Z" fill="url(#paint1_radial_271_323)"/>
<path d="M20.4095 20.2312C20.1657 20.3999 19.9126 20.5499 19.6501 20.6905C19.997 20.1749 20.3251 19.6499 20.6157 19.1062C20.8501 18.8437 21.0751 18.5905 21.2532 18.3093C21.3376 18.1687 21.4407 18.0093 21.5438 17.8124C22.172 16.678 22.8657 14.8499 22.8845 12.9749V12.8343C22.8845 12.3655 22.8376 11.8874 22.7438 11.428C22.7532 11.4655 22.7532 11.503 22.7626 11.5405C22.7532 11.5124 22.7532 11.4843 22.7438 11.4562C22.7532 11.503 22.7626 11.5593 22.772 11.6062C22.9032 12.6937 22.8095 13.753 22.3501 14.5405C22.3407 14.5499 22.3313 14.5593 22.3313 14.578C22.5657 13.3874 22.6501 12.0749 22.3876 10.7624C22.3876 10.7624 22.2845 10.1249 21.497 8.18428C21.047 7.06865 20.2407 6.1499 19.5376 5.48428C18.9188 4.71553 18.347 4.1999 18.0376 3.87178C17.3907 3.1874 17.1188 2.67178 17.0063 2.34365C16.9126 2.29678 15.6657 1.0874 15.572 1.04053C15.0282 1.88428 13.3313 4.50928 14.1376 6.95615C14.5032 8.07178 15.4313 9.2249 16.4063 9.87178C16.4532 9.91865 16.9876 10.4999 17.2407 11.8124C17.5032 13.1718 17.3626 14.2218 16.8282 15.7874C16.1907 17.1562 14.5595 18.5155 13.0313 18.6562C9.76885 18.9562 8.56885 17.0155 8.56885 17.0155C9.73135 17.4843 11.0251 17.3812 11.8126 16.903C12.6001 16.4155 13.0782 16.0499 13.472 16.1905C13.8563 16.3312 14.1563 15.9187 13.8845 15.4874C13.4532 14.8218 12.6657 14.4843 11.8876 14.6155C11.1001 14.7468 10.3688 15.3749 9.3376 14.7655C9.27197 14.728 9.20635 14.6812 9.14072 14.6343C9.0751 14.5874 9.36572 14.6999 9.29072 14.653C9.09385 14.5405 8.72822 14.3062 8.64385 14.2218C8.6251 14.203 8.80322 14.278 8.78447 14.2593C7.81885 13.4624 7.94072 12.9187 7.96885 12.5812C7.99697 12.3093 8.16572 11.9624 8.46572 11.8218C8.60635 11.8968 8.7001 11.9624 8.7001 11.9624C8.7001 11.9624 8.63447 11.8405 8.60635 11.7749C8.61572 11.7655 8.6251 11.7749 8.64385 11.7655C8.76572 11.8218 9.01885 11.9718 9.15947 12.0562C9.3376 12.178 9.39385 12.2905 9.39385 12.2905C9.39385 12.2905 9.44072 12.2624 9.40322 12.1593C9.39385 12.1124 9.3376 11.9718 9.15947 11.8312H9.16885C9.27197 11.8874 9.3751 11.9624 9.46885 12.0374C9.51572 11.8593 9.60947 11.6718 9.59072 11.3343C9.58135 11.0999 9.58135 11.0343 9.54385 10.9405C9.50635 10.8655 9.5626 10.828 9.62822 10.9124C9.61885 10.8468 9.6001 10.7812 9.57197 10.7249V10.7155C9.65635 10.4343 11.2876 9.69365 11.4095 9.60928C11.6063 9.46865 11.7657 9.29053 11.8876 9.08428C11.9813 8.94365 12.047 8.7374 12.0657 8.42803C12.0751 8.20303 11.972 8.05303 10.3126 7.88428C9.8626 7.8374 9.59072 7.50928 9.44072 7.20928C9.4126 7.14365 9.38447 7.0874 9.35635 7.02178C9.32822 6.95615 9.30947 6.88115 9.29072 6.80615C9.5626 6.02803 10.0126 5.37178 10.6876 4.8749C10.7251 4.8374 10.5376 4.88428 10.5751 4.84678C10.622 4.80928 10.8938 4.69678 10.9501 4.66865C11.0157 4.64053 10.6782 4.49053 10.3782 4.52803C10.0782 4.56553 10.0126 4.60303 9.84385 4.66865C9.90947 4.60303 10.1251 4.50928 10.0782 4.51865C9.7501 4.56553 9.34697 4.7624 9.0001 4.97803C9.0001 4.94053 9.00947 4.90303 9.01885 4.86553C8.85947 4.93115 8.45635 5.2124 8.34385 5.44678C8.35322 5.3999 8.35322 5.35303 8.35322 5.30615C8.23135 5.40928 8.11885 5.52178 8.0251 5.65303L7.96885 5.67178C7.03135 5.29678 6.19697 5.26865 5.50322 5.4374C5.35322 5.2874 5.27822 5.3999 4.92197 4.63115C4.89385 4.58428 4.94072 4.67803 4.92197 4.63115C4.86572 4.48115 4.95947 4.82803 4.92197 4.63115C4.34072 5.0999 3.57197 5.6249 3.19697 5.99053C3.19697 6.00928 3.62822 5.86865 3.19697 5.99053C3.04697 6.0374 3.05635 6.12178 3.0376 6.9374C3.02822 7.00303 3.0376 7.06865 3.02822 7.1249C2.72822 7.4999 2.53135 7.81865 2.45635 7.9874C2.07197 8.64365 1.6501 9.6749 1.24697 11.2968C1.4251 10.8562 1.64072 10.4343 1.89385 10.0312C1.55635 10.8937 1.22822 12.253 1.1626 14.3343C1.24697 13.903 1.3501 13.4812 1.48135 13.0593C1.39697 14.7937 1.69697 16.5187 2.35322 18.1218C2.5876 18.6937 2.97197 19.5655 3.6376 20.5218C5.71885 22.7062 8.64385 24.0655 11.8876 24.0655C15.272 24.0655 18.3188 22.5843 20.4095 20.2312Z" fill="url(#paint2_linear_271_323)"/>
<path d="M17.8969 21.8156C21.9937 21.3375 23.8125 17.1187 21.4781 17.0343C19.3781 16.9687 15.9562 22.0406 17.8969 21.8156Z" fill="url(#paint3_radial_271_323)"/>
<path d="M21.7782 16.1719C24.6 14.5313 23.8594 10.9875 23.8594 10.9875C23.8594 10.9875 22.7719 12.2532 22.0313 14.2688C21.3094 16.2657 20.0813 17.1657 21.7782 16.1719Z" fill="url(#paint4_radial_271_323)"/>
<path d="M12.825 23.9155C16.7625 25.1718 20.1375 22.0686 18.0562 21.0374C16.1625 20.1093 10.9593 23.3249 12.825 23.9155Z" fill="url(#paint5_radial_271_323)"/>
<path d="M22.078 17.6813C22.1718 17.5501 22.303 17.1188 22.4155 16.922C23.1093 15.797 23.1187 14.9063 23.1187 14.8876C23.5405 12.797 23.503 11.9345 23.2405 10.3595C23.0343 9.08447 22.1249 7.25635 21.3374 6.38447C20.5312 5.4751 21.0937 5.7751 20.3155 5.10947C19.6312 4.3501 18.9562 3.59072 18.5999 3.29072C15.9749 1.09697 16.0312 0.628223 16.0874 0.553223L16.0499 0.590723C16.0218 0.468848 15.9937 0.365723 15.9937 0.365723C15.9937 0.365723 14.5499 1.79072 14.2499 4.18135C14.053 5.7376 14.6343 7.36885 15.4874 8.40947C15.928 8.95322 16.4249 9.44072 16.9687 9.87197C17.6062 10.7907 17.9624 11.9251 17.9624 13.1438C17.9624 16.2001 15.4874 18.6657 12.4312 18.6657C12.0187 18.6657 11.5968 18.6188 11.1937 18.5251C9.7499 18.2532 8.9249 17.522 8.50303 17.0251C8.26865 16.7438 8.16553 16.5376 8.16553 16.5376C9.45928 16.997 10.8843 16.9032 11.7562 16.4251C12.628 15.9376 13.1624 15.5813 13.5937 15.722C14.0155 15.8626 14.353 15.4501 14.053 15.0282C13.753 14.6063 12.9843 13.997 11.8405 14.1657C10.9687 14.297 10.1624 14.9157 9.01865 14.3157C8.94365 14.2782 8.86865 14.2313 8.80303 14.1938C8.72803 14.147 9.04678 14.2595 8.97178 14.2126C8.74678 14.1001 8.35303 13.8657 8.2499 13.7813C8.23115 13.7626 8.41865 13.8376 8.40928 13.8188C7.34053 13.0313 7.47178 12.497 7.4999 12.1595C7.52803 11.8876 7.7249 11.5501 8.05303 11.4095C8.2124 11.4845 8.30615 11.5501 8.30615 11.5501C8.30615 11.5501 8.24053 11.4282 8.20303 11.3626C8.2124 11.3532 8.23115 11.3626 8.24053 11.3532C8.37178 11.4095 8.6624 11.5501 8.8124 11.6438C9.00928 11.7657 9.0749 11.8782 9.0749 11.8782C9.0749 11.8782 9.13115 11.8501 9.08428 11.747C9.06553 11.7001 9.00928 11.5595 8.8124 11.4188H8.82178C8.93428 11.4751 9.04678 11.5501 9.1499 11.6251C9.20615 11.447 9.2999 11.2595 9.28115 10.922C9.27178 10.6876 9.27178 10.622 9.2249 10.5376C9.1874 10.4626 9.24365 10.4251 9.31865 10.5095C9.30928 10.4438 9.28115 10.3876 9.25303 10.322V10.3126C9.34678 10.0313 11.1562 9.3001 11.2874 9.21572C11.503 9.08447 11.6812 8.90635 11.8218 8.7001C11.9249 8.55947 11.9999 8.35322 12.0187 8.04385C12.028 7.90322 11.9812 7.8001 11.503 7.6876C11.2124 7.62197 10.7718 7.56572 10.078 7.5001C9.58115 7.45322 9.28115 7.13447 9.1124 6.83447C9.08428 6.76885 9.04678 6.7126 9.01865 6.65635C8.99053 6.59072 8.9624 6.51572 8.94365 6.4501C9.24365 5.6626 9.7874 4.99697 10.4905 4.5376C10.528 4.5001 10.3312 4.54697 10.3687 4.50947C10.4155 4.47197 10.7249 4.35947 10.7812 4.33135C10.8562 4.30322 10.4812 4.1626 10.1437 4.19072C9.80615 4.22822 9.74053 4.25635 9.55303 4.33135C9.62803 4.26572 9.8624 4.18135 9.80615 4.18135C9.46865 4.21885 9.01865 4.40635 8.63428 4.62197C8.63428 4.58447 8.64365 4.54697 8.65303 4.50947C8.4749 4.5751 8.03428 4.85635 7.90303 5.09072C7.9124 5.04385 7.9124 4.99697 7.9124 4.95947C7.78115 5.0626 7.6499 5.1751 7.54678 5.30635L7.5374 5.31572C6.49678 4.94072 5.57803 4.9126 4.80928 5.08135C4.64053 4.93135 4.36865 4.69697 3.98428 3.9376C3.95615 3.89072 3.94678 4.03135 3.92803 3.98447C3.77803 3.6376 3.68428 3.06572 3.70303 2.67197C3.70303 2.67197 3.39365 2.8126 3.14053 3.40322C3.09365 3.50635 3.06553 3.57197 3.02803 3.62822C3.00928 3.64697 3.05615 3.43135 3.05615 3.4501C3.00928 3.5251 2.89678 3.62822 2.8499 3.76885C2.8124 3.87197 2.76553 3.92822 2.7374 4.0501L2.72803 4.05947C2.72803 4.02197 2.7374 3.90947 2.72803 3.92822C2.60615 4.17197 2.50303 4.4251 2.41865 4.67822C2.27803 5.12822 2.11865 5.74697 2.09053 6.55322C2.08115 6.60947 2.09053 6.68447 2.08115 6.74072C1.75303 7.11572 1.52803 7.43447 1.44365 7.59385C1.02178 8.2501 0.553027 9.2626 0.103027 10.8751C0.299902 10.4345 0.543652 10.0126 0.824902 9.61885C0.449902 10.472 0.0842774 11.822 0.00927734 13.8845C0.103027 13.4532 0.215527 13.0313 0.356152 12.6188C0.290527 13.997 0.449902 15.7126 1.32178 17.6438C1.8374 18.7782 3.02803 21.0845 5.94365 22.8845C5.94365 22.8845 6.9374 23.6251 8.63428 24.1782C8.75615 24.2251 8.8874 24.272 9.01865 24.3095C8.98115 24.2907 8.93428 24.272 8.89678 24.2626C10.0312 24.6001 11.203 24.7782 12.3937 24.7782C16.7999 24.7782 18.103 23.0063 18.103 23.0063L18.0937 23.0157C18.1593 22.9595 18.2155 22.8938 18.2718 22.8376C17.578 23.4938 15.9843 23.5407 15.3937 23.4938C16.4062 23.1938 17.0718 22.9407 18.3655 22.4532C18.5155 22.397 18.6749 22.3313 18.8343 22.2563L18.8812 22.2282C18.9093 22.2095 18.9468 22.2001 18.9749 22.1813C19.603 21.8813 20.203 21.5157 20.7468 21.0751C22.0499 20.0345 22.3312 19.022 22.4812 18.3563C22.4624 18.422 22.3968 18.572 22.3499 18.6657C22.0124 19.3782 21.2718 19.8282 20.4655 20.2032C20.8499 19.697 21.2062 19.172 21.5343 18.6282C21.7968 18.3657 21.8718 17.9532 22.078 17.6813Z" fill="url(#paint6_radial_271_323)"/>
<path d="M20.4938 20.1656C21.0282 19.5844 21.4969 18.9094 21.8625 18.15C22.7907 16.2 24.225 12.9469 23.1 9.5625C22.2094 6.88125 20.9813 5.41875 19.425 3.98438C16.8938 1.65938 16.1906 0.61875 16.1906 0C16.1906 0 13.2656 3.25313 14.5313 6.65625C15.7969 10.0594 18.3938 9.92813 20.1094 13.4719C22.1344 17.6438 18.4781 22.2 15.45 23.475C15.6375 23.4375 22.1719 21.9563 22.5188 18.2156C22.5 18.2813 22.35 19.3219 20.4938 20.1656Z" fill="url(#paint7_radial_271_323)"/>
<path d="M12.0188 8.0438C12.0282 7.8188 11.9157 7.67817 10.0875 7.50005C9.33754 7.43442 9.04691 6.74067 8.96254 6.44067C8.70004 7.13442 8.58754 7.86567 8.64379 8.74692C8.68129 9.32817 9.07504 9.94692 9.25316 10.3032C9.25316 10.3032 9.29066 10.2469 9.30941 10.2282C9.65629 9.86255 11.1188 9.30942 11.2594 9.23442C11.4188 9.14067 12 8.7188 12.0188 8.0438Z" fill="url(#paint8_linear_271_323)"/>
<path d="M3.98443 3.9375C3.9563 3.89063 3.94693 4.03125 3.92818 3.98438C3.77818 3.6375 3.68443 3.075 3.71255 2.67188C3.71255 2.67188 3.40318 2.8125 3.15005 3.40312C3.10318 3.50625 3.07505 3.57188 3.03755 3.62813C3.0188 3.64688 3.06568 3.43125 3.06568 3.45C3.0188 3.525 2.9063 3.62812 2.85943 3.75937C2.82193 3.8625 2.77505 3.92813 2.74693 4.05938C2.73755 4.09688 2.7563 3.9 2.74693 3.92813C2.14693 5.08125 2.03443 6.825 2.10005 6.75C3.37505 5.39063 4.82818 5.07188 4.82818 5.07188C4.65005 4.95938 4.31255 4.62188 3.98443 3.9375Z" fill="url(#paint9_linear_271_323)"/>
<path d="M8.80303 18.1313C7.0499 17.3813 5.05303 16.3219 5.12803 13.9219C5.23115 10.7625 8.08115 11.3813 8.08115 11.3813C7.97803 11.4094 7.6874 11.6157 7.58428 11.8313C7.48115 12.1032 7.28428 12.7219 7.8749 13.3688C8.8124 14.3813 5.95303 15.7688 10.3593 18.3938C10.4718 18.45 9.32803 18.3563 8.80303 18.1313Z" fill="url(#paint10_linear_271_323)"/>
<path d="M8.18452 16.5562C9.43139 16.9875 10.8751 16.9125 11.747 16.4344C12.3283 16.1062 13.0783 15.5906 13.5283 15.7219C13.1345 15.5625 12.8345 15.4875 12.4689 15.4781C12.4033 15.4781 12.3376 15.4781 12.272 15.4687C12.1408 15.4687 12.0095 15.4781 11.8783 15.4875C11.6533 15.5062 11.4095 15.6469 11.1845 15.6281C11.1751 15.6281 11.4001 15.5344 11.3814 15.5344C11.2595 15.5625 11.1283 15.5625 10.997 15.5812C10.9126 15.5906 10.8376 15.6 10.7439 15.6094C8.14702 15.825 5.96264 14.2031 5.96264 14.2031C5.77514 14.8219 6.79702 16.0687 8.18452 16.5562Z" fill="url(#paint11_linear_271_323)"/>
<path d="M20.4843 20.1844C23.1093 17.6063 24.4312 14.4844 23.8687 10.9688C23.8687 10.9688 24.0937 12.7688 23.2406 14.6063C23.6531 12.8063 23.7 10.575 22.6125 8.25942C21.1687 5.17505 18.7875 3.5438 17.8781 2.8688C16.5 1.83755 15.9281 0.796924 15.9187 0.581299C15.5062 1.42505 14.2593 4.31255 15.7875 6.79692C17.2125 9.1313 19.4625 9.81567 21.0281 11.9532C23.9343 15.9001 20.4843 20.1844 20.4843 20.1844Z" fill="url(#paint12_linear_271_323)"/>
<path d="M20.1093 13.4812C19.1906 11.5875 18.0468 10.7625 16.9687 9.87183C17.0906 10.05 17.1281 10.1062 17.1937 10.2281C18.15 11.2406 19.5468 13.7156 18.5343 16.8281C16.6125 22.6781 8.9437 19.9218 8.13745 19.1531C8.46558 22.5375 14.1281 24.1593 17.8218 21.9656C19.9125 19.9593 21.6093 16.5843 20.1093 13.4812Z" fill="url(#paint13_linear_271_323)"/>
</g>
<defs>
<radialGradient id="paint0_radial_271_323" cx="0" cy="0" r="1" gradientUnits="userSpaceOnUse" gradientTransform="translate(23.5539 7.65301) rotate(2.2603) scale(8.63338 12.7251)">
<stop offset="0.1" stop-color="#FFEA00"/>
<stop offset="0.17" stop-color="#FFDE00"/>
<stop offset="0.28" stop-color="#FFBF00"/>
<stop offset="0.43" stop-color="#FF8E00"/>
<stop offset="0.77" stop-color="#FF272D"/>
<stop offset="0.87" stop-color="#E0255A"/>
<stop offset="0.95" stop-color="#CC2477"/>
<stop offset="1" stop-color="#C42482"/>
</radialGradient>
<radialGradient id="paint1_radial_271_323" cx="0" cy="0" r="1" gradientUnits="userSpaceOnUse" gradientTransform="translate(15.7133 3.83216) scale(24.5005)">
<stop stop-color="#00CCDA"/>
<stop offset="0.22" stop-color="#0083FF"/>
<stop offset="0.26" stop-color="#007AF9"/>
<stop offset="0.33" stop-color="#005FE7"/>
<stop offset="0.44" stop-color="#2639AD"/>
<stop offset="0.52" stop-color="#401E84"/>
<stop offset="0.57" stop-color="#4A1475"/>
</radialGradient>
<linearGradient id="paint2_linear_271_323" x1="13.6166" y1="18.3548" x2="8.79732" y2="2.59012" gradientUnits="userSpaceOnUse">
<stop stop-color="#000F43" stop-opacity="0.4"/>
<stop offset="0.48" stop-color="#001962" stop-opacity="0.17"/>
<stop offset="1" stop-color="#002079" stop-opacity="0"/>
</linearGradient>
<radialGradient id="paint3_radial_271_323" cx="0" cy="0" r="1" gradientUnits="userSpaceOnUse" gradientTransform="translate(24.3099 16.4828) rotate(5.61743) scale(8.2362)">
<stop stop-color="#FFEA00"/>
<stop offset="0.5" stop-color="#FF272D"/>
<stop offset="1" stop-color="#C42482"/>
</radialGradient>
<radialGradient id="paint4_radial_271_323" cx="0" cy="0" r="1" gradientUnits="userSpaceOnUse" gradientTransform="translate(24.3413 8.55053) rotate(5.61742) scale(13.7536)">
<stop stop-color="#FFE900"/>
<stop offset="0.16" stop-color="#FFAF0E"/>
<stop offset="0.32" stop-color="#FF7A1B"/>
<stop offset="0.47" stop-color="#FF4E26"/>
<stop offset="0.62" stop-color="#FF2C2E"/>
<stop offset="0.76" stop-color="#FF1434"/>
<stop offset="0.89" stop-color="#FF0538"/>
<stop offset="1" stop-color="#FF0039"/>
</radialGradient>
<radialGradient id="paint5_radial_271_323" cx="0" cy="0" r="1" gradientUnits="userSpaceOnUse" gradientTransform="translate(25.0294 21.429) rotate(5.61742) scale(12.6204)">
<stop stop-color="#FF272D"/>
<stop offset="0.5" stop-color="#C42482"/>
<stop offset="0.99" stop-color="#620700"/>
</radialGradient>
<radialGradient id="paint6_radial_271_323" cx="0" cy="0" r="1" gradientUnits="userSpaceOnUse" gradientTransform="translate(18.0044 9.91941) scale(19.6909)">
<stop offset="0.16" stop-color="#FFEA00"/>
<stop offset="0.23" stop-color="#FFDE00"/>
<stop offset="0.37" stop-color="#FFBF00"/>
<stop offset="0.54" stop-color="#FF8E00"/>
<stop offset="0.76" stop-color="#FF272D"/>
<stop offset="0.8" stop-color="#F92433"/>
<stop offset="0.84" stop-color="#E91C45"/>
<stop offset="0.89" stop-color="#CF0E62"/>
<stop offset="0.94" stop-color="#B5007F"/>
</radialGradient>
<radialGradient id="paint7_radial_271_323" cx="0" cy="0" r="1" gradientUnits="userSpaceOnUse" gradientTransform="translate(16.8755 0.787302) scale(22.4418)">
<stop offset="0.28" stop-color="#FFEA00"/>
<stop offset="0.4" stop-color="#FFDD00"/>
<stop offset="0.63" stop-color="#FFBA00"/>
<stop offset="0.86" stop-color="#FF9100"/>
<stop offset="0.93" stop-color="#FF6711"/>
<stop offset="0.99" stop-color="#FF4A1D"/>
</radialGradient>
<linearGradient id="paint8_linear_271_323" x1="3.74026" y1="9.19166" x2="13.4063" y2="7.71558" gradientUnits="userSpaceOnUse">
<stop stop-color="#C42482" stop-opacity="0.5"/>
<stop offset="0.47" stop-color="#FF272D" stop-opacity="0.5"/>
<stop offset="0.49" stop-color="#FF2C2C" stop-opacity="0.51"/>
<stop offset="0.68" stop-color="#FF7A1A" stop-opacity="0.72"/>
<stop offset="0.83" stop-color="#FFB20D" stop-opacity="0.87"/>
<stop offset="0.94" stop-color="#FFD605" stop-opacity="0.96"/>
<stop offset="1" stop-color="#FFE302"/>
</linearGradient>
<linearGradient id="paint9_linear_271_323" x1="3.66747" y1="6.65681" x2="2.65955" y2="3.03405" gradientUnits="userSpaceOnUse">
<stop stop-color="#891551" stop-opacity="0.6"/>
<stop offset="1" stop-color="#C42482" stop-opacity="0"/>
</linearGradient>
<linearGradient id="paint10_linear_271_323" x1="5.50735" y1="11.7476" x2="7.58365" y2="14.6482" gradientUnits="userSpaceOnUse">
<stop offset="0.01" stop-color="#891551" stop-opacity="0.5"/>
<stop offset="0.48" stop-color="#FF272D" stop-opacity="0.5"/>
<stop offset="1" stop-color="#FF272D" stop-opacity="0"/>
</linearGradient>
<linearGradient id="paint11_linear_271_323" x1="9.55375" y1="16.7974" x2="9.74377" y2="14.9338" gradientUnits="userSpaceOnUse">
<stop stop-color="#C42482"/>
<stop offset="0.08" stop-color="#C42482" stop-opacity="0.81"/>
<stop offset="0.21" stop-color="#C42482" stop-opacity="0.57"/>
<stop offset="0.33" stop-color="#C42482" stop-opacity="0.36"/>
<stop offset="0.45" stop-color="#C42482" stop-opacity="0.2"/>
<stop offset="0.56" stop-color="#C42482" stop-opacity="0.09"/>
<stop offset="0.67" stop-color="#C42482" stop-opacity="0.02"/>
<stop offset="0.77" stop-color="#C42482" stop-opacity="0"/>
</linearGradient>
<linearGradient id="paint12_linear_271_323" x1="15.6179" y1="0.910736" x2="23.3125" y2="18.1169" gradientUnits="userSpaceOnUse">
<stop stop-color="#FFF14F"/>
<stop offset="0.27" stop-color="#FFEE4C"/>
<stop offset="0.45" stop-color="#FFE643"/>
<stop offset="0.61" stop-color="#FFD834"/>
<stop offset="0.76" stop-color="#FFC41E"/>
<stop offset="0.89" stop-color="#FFAB02"/>
<stop offset="0.9" stop-color="#FFA900"/>
<stop offset="0.95" stop-color="#FFA000"/>
<stop offset="1" stop-color="#FF9100"/>
</linearGradient>
<linearGradient id="paint13_linear_271_323" x1="17.1457" y1="10.8069" x2="13.501" y2="20.5933" gradientUnits="userSpaceOnUse">
<stop stop-color="#FF8E00"/>
<stop offset="0.04" stop-color="#FF8E00" stop-opacity="0.86"/>
<stop offset="0.08" stop-color="#FF8E00" stop-opacity="0.73"/>
<stop offset="0.13" stop-color="#FF8E00" stop-opacity="0.63"/>
<stop offset="0.18" stop-color="#FF8E00" stop-opacity="0.56"/>
<stop offset="0.23" stop-color="#FF8E00" stop-opacity="0.51"/>
<stop offset="0.28" stop-color="#FF8E00" stop-opacity="0.5"/>
<stop offset="0.39" stop-color="#FF8E00" stop-opacity="0.48"/>
<stop offset="0.52" stop-color="#FF8E00" stop-opacity="0.42"/>
<stop offset="0.68" stop-color="#FF8E00" stop-opacity="0.31"/>
<stop offset="0.84" stop-color="#FF8E00" stop-opacity="0.17"/>
<stop offset="1" stop-color="#FF8E00" stop-opacity="0"/>
</linearGradient>
<clipPath id="clip0_271_323">
<rect width="24" height="24.8438" fill="white"/>
</clipPath>
</defs>
</svg>
