<svg width="30" height="18" viewBox="0 0 30 18" fill="none" xmlns="http://www.w3.org/2000/svg">
<path d="M29.37 8.97769C29.1379 8.63988 23.5589 0.728271 14.7395 0.728271C7.17184 0.728271 0.428362 8.59445 0.14462 8.92978C-0.0482068 9.15825 -0.0482068 9.49358 0.14462 9.72326C0.428362 10.0586 7.17184 17.9248 14.7395 17.9248C22.3072 17.9248 29.0507 10.0586 29.3344 9.72326C29.5126 9.51201 29.5285 9.20616 29.37 8.97769ZM14.7395 16.6965C8.67289 16.6965 2.90466 10.9111 1.43931 9.32655C2.90224 7.74081 8.66431 1.95663 14.7395 1.95663C21.838 1.95663 26.8483 7.73344 28.0717 9.29339C26.6591 10.8275 20.8578 16.6965 14.7395 16.6965Z" fill="#2196F3"/>
<path d="M14.7397 4.41333C12.03 4.41333 9.82642 6.61694 9.82642 9.32659C9.82642 12.0362 12.03 14.2399 14.7397 14.2399C17.4493 14.2399 19.6529 12.0362 19.6529 9.32659C19.6529 6.61694 17.4493 4.41333 14.7397 4.41333ZM14.7397 13.0116C12.7081 13.0116 11.0547 11.3583 11.0547 9.32665C11.0547 7.29503 12.7081 5.64169 14.7397 5.64169C16.7713 5.64169 18.4246 7.29503 18.4246 9.32665C18.4246 11.3583 16.7713 13.0116 14.7397 13.0116Z" fill="#2196F3"/>
</svg>
