<svg width="24" height="24" viewBox="0 0 24 24" fill="none" xmlns="http://www.w3.org/2000/svg">
<path d="M11.9249 0.75C7.04985 0.75 2.88735 3.9 1.34985 8.25H22.5749C20.9999 3.9 16.8374 0.75 11.9249 0.75Z" fill="#F2B200"/>
<path d="M11.9249 23.25C16.8374 23.25 20.9999 20.1375 22.5374 15.75H1.34985C2.88735 20.1375 7.04985 23.25 11.9249 23.25Z" fill="#83BF4F"/>
<path d="M1.35015 8.25C0.937646 9.4125 0.712646 10.6875 0.712646 12C0.712646 13.3125 0.937646 14.5875 1.35015 15.75H22.5751C22.9876 14.5875 23.2126 13.3125 23.2126 12C23.2126 10.6875 22.9876 9.4125 22.5751 8.25H1.35015Z" fill="white"/>
<path d="M11.925 15C13.5819 15 14.925 13.6569 14.925 12C14.925 10.3431 13.5819 9 11.925 9C10.2682 9 8.92505 10.3431 8.92505 12C8.92505 13.6569 10.2682 15 11.925 15Z" fill="#428BC1"/>
<path d="M11.925 14.625C13.3748 14.625 14.55 13.4497 14.55 12C14.55 10.5503 13.3748 9.375 11.925 9.375C10.4753 9.375 9.30005 10.5503 9.30005 12C9.30005 13.4497 10.4753 14.625 11.925 14.625Z" fill="white"/>
<path d="M10.9502 9.75C11.0537 9.75 11.1377 9.66605 11.1377 9.5625C11.1377 9.45895 11.0537 9.375 10.9502 9.375C10.8466 9.375 10.7627 9.45895 10.7627 9.5625C10.7627 9.66605 10.8466 9.75 10.9502 9.75Z" fill="#428BC1"/>
<path d="M10.3501 10.0874C10.4537 10.0874 10.5376 10.0035 10.5376 9.8999C10.5376 9.79635 10.4537 9.7124 10.3501 9.7124C10.2465 9.7124 10.1626 9.79635 10.1626 9.8999C10.1626 10.0035 10.2465 10.0874 10.3501 10.0874Z" fill="#428BC1"/>
<path d="M9.86279 10.5752C9.96635 10.5752 10.0503 10.4912 10.0503 10.3877C10.0503 10.2841 9.96635 10.2002 9.86279 10.2002C9.75924 10.2002 9.67529 10.2841 9.67529 10.3877C9.67529 10.4912 9.75924 10.5752 9.86279 10.5752Z" fill="#428BC1"/>
<path d="M9.52515 11.1748C9.6287 11.1748 9.71265 11.0909 9.71265 10.9873C9.71265 10.8838 9.6287 10.7998 9.52515 10.7998C9.42159 10.7998 9.33765 10.8838 9.33765 10.9873C9.33765 11.0909 9.42159 11.1748 9.52515 11.1748Z" fill="#428BC1"/>
<path d="M9.33765 11.8501C9.4412 11.8501 9.52515 11.7662 9.52515 11.6626C9.52515 11.559 9.4412 11.4751 9.33765 11.4751C9.23409 11.4751 9.15015 11.559 9.15015 11.6626C9.15015 11.7662 9.23409 11.8501 9.33765 11.8501Z" fill="#428BC1"/>
<path d="M9.33765 12.5249C9.4412 12.5249 9.52515 12.441 9.52515 12.3374C9.52515 12.2338 9.4412 12.1499 9.33765 12.1499C9.23409 12.1499 9.15015 12.2338 9.15015 12.3374C9.15015 12.441 9.23409 12.5249 9.33765 12.5249Z" fill="#428BC1"/>
<path d="M9.52515 13.2002C9.6287 13.2002 9.71265 13.1162 9.71265 13.0127C9.71265 12.9091 9.6287 12.8252 9.52515 12.8252C9.42159 12.8252 9.33765 12.9091 9.33765 13.0127C9.33765 13.1162 9.42159 13.2002 9.52515 13.2002Z" fill="#428BC1"/>
<path d="M9.86279 13.7998C9.96635 13.7998 10.0503 13.7159 10.0503 13.6123C10.0503 13.5088 9.96635 13.4248 9.86279 13.4248C9.75924 13.4248 9.67529 13.5088 9.67529 13.6123C9.67529 13.7159 9.75924 13.7998 9.86279 13.7998Z" fill="#428BC1"/>
<path d="M10.3501 14.2876C10.4537 14.2876 10.5376 14.2037 10.5376 14.1001C10.5376 13.9965 10.4537 13.9126 10.3501 13.9126C10.2465 13.9126 10.1626 13.9965 10.1626 14.1001C10.1626 14.2037 10.2465 14.2876 10.3501 14.2876Z" fill="#428BC1"/>
<path d="M10.9502 14.625C11.0537 14.625 11.1377 14.5411 11.1377 14.4375C11.1377 14.3339 11.0537 14.25 10.9502 14.25C10.8466 14.25 10.7627 14.3339 10.7627 14.4375C10.7627 14.5411 10.8466 14.625 10.9502 14.625Z" fill="#428BC1"/>
<path d="M11.5876 14.7749C11.6912 14.7749 11.7751 14.691 11.7751 14.5874C11.7751 14.4838 11.6912 14.3999 11.5876 14.3999C11.4841 14.3999 11.4001 14.4838 11.4001 14.5874C11.4001 14.691 11.4841 14.7749 11.5876 14.7749Z" fill="#428BC1"/>
<path d="M12.1128 14.6249C12.1128 14.5124 12.1878 14.4374 12.2628 14.3999C12.3753 14.3999 12.4503 14.4749 12.4878 14.5499C12.4878 14.6624 12.4128 14.7374 12.3378 14.7749C12.1878 14.8124 12.1128 14.7374 12.1128 14.6249Z" fill="#428BC1"/>
<path d="M12.9375 14.625C13.0411 14.625 13.125 14.5411 13.125 14.4375C13.125 14.3339 13.0411 14.25 12.9375 14.25C12.8339 14.25 12.75 14.3339 12.75 14.4375C12.75 14.5411 12.8339 14.625 12.9375 14.625Z" fill="#428BC1"/>
<path d="M13.5376 14.2876C13.6412 14.2876 13.7251 14.2037 13.7251 14.1001C13.7251 13.9965 13.6412 13.9126 13.5376 13.9126C13.434 13.9126 13.3501 13.9965 13.3501 14.1001C13.3501 14.2037 13.434 14.2876 13.5376 14.2876Z" fill="#428BC1"/>
<path d="M14.0251 13.7998C14.1287 13.7998 14.2126 13.7159 14.2126 13.6123C14.2126 13.5088 14.1287 13.4248 14.0251 13.4248C13.9216 13.4248 13.8376 13.5088 13.8376 13.6123C13.8376 13.7159 13.9216 13.7998 14.0251 13.7998Z" fill="#428BC1"/>
<path d="M14.3628 13.2002C14.4663 13.2002 14.5503 13.1162 14.5503 13.0127C14.5503 12.9091 14.4663 12.8252 14.3628 12.8252C14.2592 12.8252 14.1753 12.9091 14.1753 13.0127C14.1753 13.1162 14.2592 13.2002 14.3628 13.2002Z" fill="#428BC1"/>
<path d="M14.5503 12.5249C14.6538 12.5249 14.7378 12.441 14.7378 12.3374C14.7378 12.2338 14.6538 12.1499 14.5503 12.1499C14.4467 12.1499 14.3628 12.2338 14.3628 12.3374C14.3628 12.441 14.4467 12.5249 14.5503 12.5249Z" fill="#428BC1"/>
<path d="M14.5502 11.8501C14.4377 11.8501 14.3627 11.7751 14.3252 11.7001C14.3252 11.5876 14.4002 11.5126 14.4752 11.4751C14.5877 11.4751 14.6627 11.5501 14.7002 11.6251C14.7377 11.7376 14.6627 11.8126 14.5502 11.8501Z" fill="#428BC1"/>
<path d="M14.3628 11.1748C14.4663 11.1748 14.5503 11.0909 14.5503 10.9873C14.5503 10.8838 14.4663 10.7998 14.3628 10.7998C14.2592 10.7998 14.1753 10.8838 14.1753 10.9873C14.1753 11.0909 14.2592 11.1748 14.3628 11.1748Z" fill="#428BC1"/>
<path d="M14.0251 10.5752C14.1287 10.5752 14.2126 10.4912 14.2126 10.3877C14.2126 10.2841 14.1287 10.2002 14.0251 10.2002C13.9216 10.2002 13.8376 10.2841 13.8376 10.3877C13.8376 10.4912 13.9216 10.5752 14.0251 10.5752Z" fill="#428BC1"/>
<path d="M13.5376 10.0874C13.6412 10.0874 13.7251 10.0035 13.7251 9.8999C13.7251 9.79635 13.6412 9.7124 13.5376 9.7124C13.434 9.7124 13.3501 9.79635 13.3501 9.8999C13.3501 10.0035 13.434 10.0874 13.5376 10.0874Z" fill="#428BC1"/>
<path d="M13.1251 9.6374C13.0876 9.7499 12.9751 9.7874 12.8626 9.7499C12.7501 9.7124 12.7126 9.5999 12.7501 9.4874C12.7876 9.3749 12.9001 9.3374 13.0126 9.3749C13.1251 9.4499 13.1626 9.5624 13.1251 9.6374Z" fill="#428BC1"/>
<path d="M12.4502 9.41249C12.4502 9.52499 12.3377 9.59999 12.2252 9.56249C12.1127 9.56249 12.0377 9.44999 12.0752 9.33749C12.0752 9.22499 12.1877 9.14999 12.3002 9.18749C12.4127 9.22499 12.4877 9.33749 12.4502 9.41249Z" fill="#428BC1"/>
<path d="M11.7751 9.37509C11.7751 9.48759 11.7001 9.56259 11.6251 9.60009C11.5126 9.60009 11.4376 9.52509 11.4001 9.45009C11.4001 9.33759 11.4751 9.26259 11.5501 9.22509C11.6626 9.18759 11.7751 9.26259 11.7751 9.37509Z" fill="#428BC1"/>
<path d="M11.9253 12.5625C12.236 12.5625 12.4878 12.3107 12.4878 12C12.4878 11.6893 12.236 11.4375 11.9253 11.4375C11.6146 11.4375 11.3628 11.6893 11.3628 12C11.3628 12.3107 11.6146 12.5625 11.9253 12.5625Z" fill="#428BC1"/>
<path d="M11.9251 9.375L11.8501 10.9875L11.9251 12L12.0376 10.9875L11.9251 9.375Z" fill="#428BC1"/>
<path d="M11.25 9.4502L11.5875 11.0627L11.925 12.0002L11.775 10.9877L11.25 9.4502Z" fill="#428BC1"/>
<path d="M10.6128 9.7124L11.3628 11.1749L11.9253 11.9999L11.5128 11.0624L10.6128 9.7124Z" fill="#428BC1"/>
<path d="M10.0876 10.125L11.1751 11.3625L11.9251 12L11.2876 11.2125L10.0876 10.125Z" fill="#428BC1"/>
<path d="M9.67529 10.6875L11.0253 11.5875L11.9253 12L11.1003 11.4L9.67529 10.6875Z" fill="#428BC1"/>
<path d="M9.4126 11.3252L10.9501 11.8127L11.9251 12.0002L10.9876 11.6627L9.4126 11.3252Z" fill="#428BC1"/>
<path d="M9.30029 11.9998L10.9503 12.0748L11.9253 11.9998L10.9503 11.9248L9.30029 11.9998Z" fill="#428BC1"/>
<path d="M9.4126 12.675L10.9876 12.3375L11.9251 12L10.9501 12.1875L9.4126 12.675Z" fill="#428BC1"/>
<path d="M9.67529 13.3125L11.1003 12.6L11.9253 12L11.0253 12.4125L9.67529 13.3125Z" fill="#428BC1"/>
<path d="M10.0876 13.8375L11.2876 12.7875L11.9251 12L11.1751 12.6375L10.0876 13.8375Z" fill="#428BC1"/>
<path d="M10.6128 14.2875L11.5128 12.9L11.9253 12L11.3628 12.825L10.6128 14.2875Z" fill="#428BC1"/>
<path d="M11.25 14.55L11.775 13.0125L11.925 12L11.5875 12.9375L11.25 14.55Z" fill="#428BC1"/>
<path d="M11.9251 14.625L12.0376 13.0125L11.9251 12L11.8501 13.0125L11.9251 14.625Z" fill="#428BC1"/>
<path d="M12.6003 14.55L12.3003 12.9375L11.9253 12L12.1128 13.0125L12.6003 14.55Z" fill="#428BC1"/>
<path d="M13.2378 14.2875L12.5253 12.825L11.9253 12L12.3753 12.9375L13.2378 14.2875Z" fill="#428BC1"/>
<path d="M13.8003 13.8375L12.7128 12.6375L11.9253 12L12.6003 12.7875L13.8003 13.8375Z" fill="#428BC1"/>
<path d="M14.2128 13.3125L12.8628 12.4125L11.9253 12L12.7503 12.6L14.2128 13.3125Z" fill="#428BC1"/>
<path d="M14.4753 12.675L12.9378 12.1875L11.9253 12L12.9003 12.3375L14.4753 12.675Z" fill="#428BC1"/>
<path d="M14.5503 12.0002L12.9378 11.8877L11.9253 12.0002L12.9378 12.0752L14.5503 12.0002Z" fill="#428BC1"/>
<path d="M14.4753 11.3252L12.9003 11.6627L11.9253 12.0002L12.9378 11.8127L14.4753 11.3252Z" fill="#428BC1"/>
<path d="M14.2128 10.6875L12.7503 11.4L11.9253 12L12.8628 11.5875L14.2128 10.6875Z" fill="#428BC1"/>
<path d="M13.8003 10.1626L12.6003 11.2126L11.9253 12.0001L12.7128 11.3626L13.8003 10.1626Z" fill="#428BC1"/>
<path d="M13.2378 9.7124L12.3753 11.0999L11.9253 11.9999L12.5253 11.1749L13.2378 9.7124Z" fill="#428BC1"/>
<path d="M12.6378 9.4502L12.1128 10.9877L11.9253 12.0002L12.3003 11.0627L12.6378 9.4502Z" fill="#428BC1"/>
</svg>
