<svg width="24" height="24" viewBox="0 0 24 24" fill="none" xmlns="http://www.w3.org/2000/svg">
<g clip-path="url(#clip0_271_338)">
<g filter="url(#filter0_d_271_338)">
<path d="M12 23.4375C18.4203 23.4375 23.625 18.2328 23.625 11.8125C23.625 5.39219 18.4203 0.1875 12 0.1875C5.57969 0.1875 0.375 5.39219 0.375 11.8125C0.375 18.2328 5.57969 23.4375 12 23.4375Z" fill="url(#paint0_linear_271_338)"/>
</g>
<path d="M12 22.5656C17.9387 22.5656 22.7531 17.7512 22.7531 11.8125C22.7531 5.87366 17.9387 1.05933 12 1.05933C6.06116 1.05933 1.24683 5.87366 1.24683 11.8125C1.24683 17.7512 6.06116 22.5656 12 22.5656Z" fill="url(#paint1_radial_271_338)"/>
<path d="M12.0183 3.67511C11.9456 3.67511 11.8821 3.62064 11.8821 3.54799V1.64983C11.8821 1.57717 11.9456 1.52271 12.0183 1.52271C12.091 1.52271 12.1545 1.57717 12.1545 1.64983V3.54799C12.1454 3.62064 12.091 3.67511 12.0183 3.67511Z" fill="#F3F3F3"/>
<path d="M12.0181 3.68402C11.9364 3.68402 11.8728 3.62046 11.8728 3.5478V1.64965C11.8728 1.57699 11.9364 1.51343 12.0181 1.51343C12.0999 1.51343 12.1634 1.57699 12.1634 1.64965V3.5478C12.1634 3.62046 12.0908 3.68402 12.0181 3.68402ZM12.0181 1.53152C11.9546 1.53152 11.891 1.58608 11.891 1.64965V3.5478C11.891 3.61137 11.9455 3.66593 12.0181 3.66593C12.0817 3.66593 12.1452 3.61137 12.1452 3.5478V1.64965C12.1362 1.58608 12.0817 1.53152 12.0181 1.53152Z" fill="white"/>
<path d="M12.9264 2.65779C12.8538 2.6487 12.7993 2.59423 12.7993 2.52157L12.8629 1.67688C12.8719 1.60432 12.9355 1.54976 13.0082 1.55885C13.0808 1.56795 13.1353 1.62251 13.1353 1.69517L13.0718 2.53976C13.0627 2.61242 12.9991 2.66688 12.9264 2.65788V2.65779Z" fill="#F3F3F3"/>
<path d="M12.9265 2.66705C12.8448 2.65796 12.7903 2.59439 12.7903 2.52174L12.8538 1.67705C12.8629 1.60449 12.9265 1.54093 13.0083 1.54993C13.0899 1.55902 13.1445 1.62268 13.1445 1.69524L13.0809 2.53993C13.0718 2.62168 13.0083 2.67614 12.9265 2.66705ZM13.0083 1.56811C12.9447 1.56811 12.881 1.61358 12.881 1.67714L12.8175 2.52183C12.8175 2.5853 12.8629 2.63986 12.9356 2.64886C12.9992 2.64886 13.0627 2.60349 13.0627 2.53993L13.1263 1.69524C13.1263 1.63168 13.0718 1.57721 13.0082 1.56811H13.0083Z" fill="white"/>
<path d="M13.6077 3.8384C13.535 3.82021 13.4896 3.75665 13.4987 3.68399L13.8711 1.82212C13.8893 1.74955 13.9528 1.70409 14.0255 1.72227C14.0981 1.74046 14.1435 1.80402 14.1344 1.87668L13.7621 3.73856C13.753 3.80202 13.6803 3.84749 13.6077 3.8384H13.6077Z" fill="#F3F3F3"/>
<path d="M13.6076 3.84756C13.5257 3.82937 13.4803 3.75671 13.4894 3.68406L13.8618 1.82218C13.88 1.74962 13.9526 1.69505 14.0343 1.71324C14.1161 1.73143 14.1615 1.80409 14.1524 1.87674L13.7801 3.73862C13.7619 3.81118 13.6892 3.85665 13.6076 3.84756ZM14.0343 1.73143C13.9707 1.72234 13.9072 1.75862 13.889 1.82227L13.5167 3.68415C13.5076 3.74762 13.5439 3.81118 13.6166 3.82946C13.6801 3.83846 13.7437 3.80209 13.7619 3.73852L14.1342 1.87674C14.1433 1.80409 14.098 1.74962 14.0343 1.73143Z" fill="white"/>
<path d="M14.6974 3.02112C14.6801 3.01695 14.6638 3.00941 14.6494 2.99893C14.635 2.98846 14.6229 2.97525 14.6136 2.96006C14.6043 2.94488 14.5981 2.92801 14.5954 2.91043C14.5926 2.89286 14.5934 2.87491 14.5976 2.85762L14.8246 2.0403C14.8427 1.96765 14.9154 1.93127 14.988 1.94946C15.0607 1.96765 15.1062 2.0403 15.088 2.11296L14.8609 2.93037C14.8427 3.00293 14.7701 3.0393 14.6974 3.02112Z" fill="#F3F3F3"/>
<path d="M14.6973 3.03013C14.6247 3.01195 14.5702 2.9302 14.5975 2.85763L14.8246 2.04013C14.8426 1.96757 14.9244 1.9221 14.9971 1.94029C15.0697 1.95848 15.1242 2.04023 15.097 2.11279L14.8699 2.93029C14.8517 3.00285 14.7791 3.04832 14.6974 3.03013H14.6973ZM14.9971 1.96757C14.9335 1.94938 14.8608 1.98576 14.8426 2.04932L14.6157 2.86663C14.5975 2.9302 14.6338 2.99385 14.7064 3.01195C14.77 3.03013 14.8426 2.99385 14.8608 2.93029L15.0879 2.11279C15.097 2.04932 15.0607 1.98576 14.9971 1.96748V1.96757Z" fill="white"/>
<path d="M15.1423 4.30179C15.0697 4.27451 15.0425 4.19276 15.0697 4.1292L15.7962 2.37635C15.8234 2.31279 15.9053 2.27642 15.9687 2.31279C16.0415 2.33998 16.0688 2.42182 16.0415 2.48529L15.3149 4.23814C15.2877 4.30179 15.2059 4.33807 15.1424 4.30179H15.1423Z" fill="#F3F3F3"/>
<path d="M15.1424 4.31078C15.1075 4.29748 15.0793 4.27089 15.0639 4.23683C15.0486 4.20277 15.0474 4.16403 15.0606 4.12909L15.7872 2.37625C15.8145 2.30359 15.8962 2.27631 15.978 2.30359C16.0129 2.31689 16.0411 2.34348 16.0564 2.37754C16.0717 2.4116 16.0729 2.45034 16.0597 2.48528L15.3331 4.23812C15.2968 4.31078 15.215 4.34706 15.1424 4.31078ZM15.9689 2.32178C15.9053 2.29459 15.8326 2.32178 15.8054 2.38534L15.0788 4.13819C15.0516 4.20175 15.0879 4.26531 15.1515 4.29259C15.215 4.31978 15.2877 4.29259 15.315 4.22903L16.0415 2.47619C16.0597 2.42162 16.0324 2.34897 15.9689 2.32178Z" fill="white"/>
<path d="M16.3686 3.72034C16.305 3.68397 16.2777 3.61131 16.305 3.54775L16.6864 2.794C16.7227 2.73034 16.7954 2.70306 16.8681 2.73944C16.9317 2.77581 16.9589 2.84847 16.9317 2.91194L16.5501 3.66578C16.5138 3.72934 16.4412 3.75672 16.3685 3.72034H16.3686Z" fill="#F3F3F3"/>
<path d="M16.3687 3.72951C16.296 3.69314 16.2688 3.61139 16.3051 3.53873L16.6865 2.78498C16.7228 2.71223 16.8047 2.68504 16.8772 2.72132C16.9499 2.7577 16.9772 2.83945 16.9408 2.9121L16.5594 3.66585C16.523 3.73851 16.4413 3.76579 16.3686 3.72942L16.3687 3.72951ZM16.8682 2.73951C16.8046 2.71232 16.7319 2.73042 16.7047 2.79398L16.3233 3.54782C16.2961 3.60229 16.3232 3.67495 16.3777 3.71132C16.4413 3.73851 16.5139 3.72042 16.5412 3.65685L16.9227 2.90301C16.9499 2.84854 16.9227 2.77589 16.8682 2.73951Z" fill="white"/>
<path d="M16.5501 5.06456C16.4865 5.01918 16.4683 4.93743 16.5137 4.88296L17.5673 3.31171C17.6036 3.24815 17.6854 3.23906 17.7489 3.27543C17.8125 3.32081 17.8306 3.40256 17.7852 3.45702L16.7317 5.02828C16.6954 5.09184 16.6137 5.11003 16.5501 5.06456Z" fill="#F3F3F3"/>
<path d="M16.5502 5.07354C16.4867 5.02817 16.4685 4.93732 16.5049 4.87376L17.5583 3.30251C17.6037 3.23895 17.6855 3.22076 17.7581 3.26623C17.8217 3.3116 17.8399 3.40245 17.8036 3.46601L16.75 5.03726C16.7047 5.10082 16.6138 5.11892 16.5502 5.07354ZM17.749 3.28442C17.6947 3.24804 17.6128 3.25714 17.5765 3.3116L16.523 4.88285C16.4867 4.93723 16.5048 5.00998 16.5593 5.04626C16.6138 5.08264 16.6956 5.07354 16.7318 5.01907L17.7854 3.45692C17.8217 3.40245 17.8036 3.3207 17.749 3.28442Z" fill="white"/>
<path d="M17.8761 4.72854C17.8218 4.68307 17.8036 4.60132 17.849 4.54685L18.3757 3.88385C18.4211 3.82948 18.5029 3.82029 18.5573 3.86576C18.6119 3.91114 18.63 3.99289 18.5845 4.04735L18.0578 4.71035C18.0125 4.76482 17.9307 4.77392 17.8762 4.72854H17.8761Z" fill="#F3F3F3"/>
<path d="M17.8671 4.7376C17.8036 4.69213 17.7945 4.60128 17.8399 4.53772L18.3666 3.87482C18.412 3.81116 18.5028 3.80207 18.5664 3.85663C18.63 3.902 18.6391 3.99285 18.5936 4.05641L18.0669 4.71941C18.0215 4.78297 17.9307 4.79207 17.8671 4.7376ZM18.5482 3.87472C18.4938 3.82935 18.4211 3.83844 18.3757 3.89291L17.8489 4.55591C17.8127 4.61038 17.8218 4.68303 17.8761 4.72841C17.9307 4.77388 18.0034 4.76478 18.0487 4.71032L18.5755 4.04732C18.6119 3.99285 18.6027 3.9111 18.5483 3.87482L18.5482 3.87472Z" fill="white"/>
<path d="M17.7855 6.09086C17.731 6.03639 17.731 5.95464 17.7855 5.90917L19.1296 4.57417C19.1841 4.5197 19.2658 4.5287 19.3113 4.57417C19.3566 4.61955 19.3657 4.71039 19.3113 4.75577L17.9763 6.09086C17.9217 6.14533 17.8399 6.14533 17.7855 6.09086Z" fill="#F3F3F3"/>
<path d="M17.7762 6.09997C17.75 6.07332 17.7354 6.03744 17.7354 6.00008C17.7354 5.96271 17.75 5.92683 17.7762 5.90018L19.1203 4.56509C19.147 4.53887 19.1829 4.52417 19.2203 4.52417C19.2576 4.52417 19.2935 4.53887 19.3202 4.56509C19.3464 4.59174 19.3611 4.62761 19.3611 4.66498C19.3611 4.70235 19.3464 4.73822 19.3202 4.76487L17.976 6.09987C17.9494 6.12607 17.9135 6.14075 17.8761 6.14075C17.8387 6.14075 17.8029 6.12607 17.7762 6.09987V6.09997ZM19.3111 4.57418C19.2657 4.52871 19.184 4.52871 19.1386 4.57418L17.7944 5.90918C17.7489 5.95465 17.7489 6.0364 17.7944 6.08178C17.8398 6.12725 17.9215 6.12725 17.9669 6.08178L19.3111 4.74678C19.3565 4.70131 19.3565 4.62865 19.3111 4.57418Z" fill="white"/>
<path d="M19.1475 6.01808C19.1021 5.96362 19.1021 5.88187 19.1566 5.8364L19.8014 5.29152C19.8558 5.24615 19.9376 5.25515 19.9831 5.30971C20.0284 5.36418 20.0284 5.44593 19.974 5.49131L19.3292 6.03627C19.2746 6.08165 19.1928 6.07255 19.1475 6.01808Z" fill="#F3F3F3"/>
<path d="M19.1386 6.02733C19.0842 5.96377 19.0933 5.87293 19.1477 5.82755L19.7925 5.28258C19.847 5.22811 19.9379 5.23721 19.9923 5.30077C20.0469 5.36433 20.0378 5.45518 19.9833 5.50055L19.3384 6.04552C19.284 6.0999 19.1931 6.09089 19.1387 6.02733H19.1386ZM19.9742 5.30986C19.9288 5.2554 19.8561 5.2554 19.8017 5.29168L19.1568 5.83665C19.1115 5.88202 19.1024 5.95468 19.1477 6.00915C19.1931 6.06361 19.2659 6.06361 19.3202 6.02733L19.9651 5.48236C20.0196 5.43699 20.0196 5.36433 19.9742 5.30986Z" fill="white"/>
<path d="M18.7845 7.3261C18.7391 7.26254 18.7573 7.18079 18.8208 7.14441L20.4011 6.09095C20.4647 6.05457 20.5464 6.07276 20.5827 6.12732C20.6282 6.19088 20.61 6.27263 20.5464 6.30891L18.9662 7.36238C18.9116 7.39876 18.8298 7.38057 18.7845 7.3261Z" fill="#F3F3F3"/>
<path d="M18.7752 7.32616C18.7298 7.2626 18.748 7.17176 18.8116 7.12638L20.3918 6.07282C20.4554 6.02744 20.5462 6.04563 20.5916 6.11829C20.6371 6.18185 20.6188 6.27269 20.5553 6.31798L18.9751 7.37163C18.9114 7.4171 18.8207 7.39891 18.7752 7.32626V7.32616ZM20.5734 6.13648C20.5371 6.08191 20.4645 6.06373 20.41 6.1001L18.8297 7.15357C18.7753 7.18994 18.757 7.2626 18.8025 7.32616C18.8388 7.38063 18.9114 7.39882 18.966 7.36254L20.5462 6.30898C20.6007 6.2636 20.6098 6.19085 20.5734 6.13648Z" fill="white"/>
<path d="M20.1377 7.51686C20.1013 7.4532 20.1195 7.37155 20.1831 7.33517L20.9187 6.91742C20.9823 6.88105 21.064 6.90833 21.1003 6.9718C21.1367 7.03545 21.1185 7.11711 21.0549 7.15348L20.3193 7.57133C20.2557 7.60761 20.174 7.58042 20.1376 7.51677L20.1377 7.51686Z" fill="#F3F3F3"/>
<path d="M20.1287 7.52586C20.0923 7.4532 20.1105 7.37145 20.174 7.33517L20.9097 6.91742C20.9732 6.88105 21.0641 6.90833 21.1004 6.9718C21.1367 7.04455 21.1186 7.1263 21.055 7.16258L20.3193 7.58042C20.2558 7.6167 20.1649 7.58942 20.1287 7.52586ZM21.0913 6.98098C21.055 6.91742 20.9823 6.89923 20.9279 6.93551L20.1922 7.35336C20.1377 7.38964 20.1196 7.4623 20.1467 7.51676C20.1831 7.58033 20.2558 7.59851 20.3102 7.56223L21.0459 7.14439C21.1004 7.1172 21.1186 7.04455 21.0913 6.98098Z" fill="white"/>
<path d="M19.5291 8.72465C19.502 8.65199 19.5291 8.57933 19.6018 8.55215L21.3546 7.82558C21.4182 7.7983 21.5 7.83458 21.5271 7.89815C21.5544 7.9708 21.5271 8.04346 21.4545 8.07065L19.7017 8.79721C19.6381 8.82449 19.5564 8.79721 19.5291 8.72465Z" fill="#F3F3F3"/>
<path d="M19.5199 8.73369C19.4927 8.66113 19.5199 8.57938 19.5925 8.543L21.3454 7.81644C21.3803 7.80328 21.419 7.80449 21.453 7.81981C21.4871 7.83513 21.5136 7.86331 21.527 7.89819C21.5542 7.97085 21.5269 8.0526 21.4543 8.08888L19.7015 8.81544C19.6666 8.82864 19.6279 8.82745 19.5938 8.81215C19.5598 8.79684 19.5332 8.76866 19.5199 8.73378V8.73369ZM21.5089 7.90728C21.4816 7.84372 21.4089 7.81644 21.3544 7.83463L19.6016 8.56119C19.538 8.58838 19.5108 8.66113 19.538 8.72469C19.5652 8.78825 19.6379 8.81553 19.6925 8.79735L21.4452 8.07078C21.5089 8.0436 21.5361 7.97085 21.5089 7.90728Z" fill="white"/>
<path d="M20.8096 9.17894C20.7824 9.10619 20.8187 9.03362 20.8913 9.00634L21.6905 8.7429C21.7541 8.71572 21.8358 8.76109 21.854 8.82465C21.8812 8.89731 21.8449 8.96997 21.7723 8.99725L20.9731 9.26069C20.9095 9.28787 20.8368 9.25159 20.8096 9.17884V9.17894Z" fill="#F3F3F3"/>
<path d="M20.8004 9.18786C20.7732 9.1152 20.8095 9.03346 20.8914 9.00627L21.6905 8.74283C21.7631 8.71564 21.8449 8.76102 21.8722 8.83377C21.8994 8.90633 21.8631 8.98808 21.7812 9.01536L20.9821 9.2788C20.9095 9.29689 20.8277 9.26052 20.8004 9.18786ZM21.854 8.84286C21.8358 8.7792 21.7631 8.74283 21.6996 8.76102L20.9004 9.02446C20.8368 9.04255 20.8095 9.11521 20.8277 9.17886C20.8459 9.24242 20.9185 9.27871 20.9821 9.26052L21.7813 8.99717C21.8449 8.96999 21.8722 8.90633 21.854 8.84277V8.84286Z" fill="white"/>
<path d="M19.9923 10.2595C19.9741 10.1868 20.0195 10.1142 20.0921 10.1051L21.954 9.74181C22.0266 9.72362 22.0902 9.77809 22.1083 9.85075C22.1265 9.9234 22.0811 9.99606 22.0085 10.0052L20.1466 10.3684C20.074 10.3775 20.0013 10.3322 19.9922 10.2595H19.9923Z" fill="#F3F3F3"/>
<path d="M19.9742 10.2596C19.956 10.1778 20.0105 10.1052 20.0832 10.087L21.945 9.72372C22.0177 9.70553 22.0904 9.76009 22.1084 9.84184C22.1266 9.9235 22.0722 9.99616 21.9995 10.0143L20.1376 10.3776C20.0651 10.3958 19.9923 10.3413 19.9742 10.2595V10.2596ZM22.0904 9.85084C22.0813 9.78728 22.0177 9.74191 21.9541 9.751L20.0923 10.1143C20.0287 10.1234 19.9833 10.1959 20.0014 10.2596C20.0105 10.3232 20.0741 10.3685 20.1377 10.3594L21.9995 9.99616C22.0631 9.97797 22.1084 9.91441 22.0904 9.85084Z" fill="white"/>
<path d="M21.1547 10.9589C21.1456 10.8862 21.191 10.8227 21.2637 10.8136L22.0992 10.7136C22.1718 10.7046 22.2355 10.7591 22.2445 10.8317C22.2536 10.9044 22.2082 10.968 22.1355 10.9771L21.2999 11.0769C21.2364 11.086 21.1637 11.0315 21.1546 10.9589H21.1547Z" fill="#F3F3F3"/>
<path d="M21.1458 10.9589C21.1367 10.8772 21.1911 10.8045 21.2638 10.7954L22.0993 10.6956C22.172 10.6865 22.2446 10.7409 22.2537 10.8227C22.2628 10.9044 22.2083 10.9771 22.1357 10.9862L21.3001 11.086C21.2275 11.0951 21.1548 11.0407 21.1458 10.9589ZM22.2446 10.8318C22.2356 10.7682 22.1721 10.7137 22.1084 10.7228L21.2729 10.8227C21.2093 10.8318 21.1639 10.8954 21.173 10.9589C21.1821 11.0225 21.2456 11.077 21.3092 11.0679L22.1448 10.968C22.2083 10.9589 22.2537 10.8954 22.2447 10.8318H22.2446Z" fill="white"/>
<path d="M20.1377 11.8398C20.1377 11.7672 20.1921 11.7036 20.2648 11.7036H22.163C22.2356 11.7036 22.2901 11.7672 22.2901 11.8398C22.2901 11.9125 22.2356 11.9761 22.163 11.9761H20.2648C20.1922 11.9761 20.1377 11.9125 20.1377 11.8398Z" fill="#F3F3F3"/>
<path d="M20.1284 11.8399C20.1284 11.7581 20.192 11.6946 20.2646 11.6946H22.1628C22.2354 11.6946 22.299 11.7581 22.299 11.8399C22.299 11.9216 22.2354 11.9852 22.1628 11.9852H20.2646C20.192 11.9852 20.1284 11.9216 20.1284 11.8399ZM22.2808 11.849C22.2808 11.7854 22.2264 11.7219 22.1627 11.7219H20.2647C20.2012 11.7219 20.1466 11.7762 20.1466 11.849C20.1466 11.9125 20.2012 11.9761 20.2647 11.9761H22.1629C22.2264 11.967 22.2809 11.9125 22.2809 11.849H22.2808Z" fill="white"/>
<path d="M21.1456 12.757C21.1546 12.6844 21.2092 12.6299 21.2818 12.6299L22.1265 12.6934C22.1991 12.7025 22.2535 12.7661 22.2444 12.8388C22.2354 12.9114 22.1809 12.9659 22.1082 12.9659L21.2636 12.9023C21.2001 12.8932 21.1455 12.8297 21.1455 12.757H21.1456Z" fill="#F3F3F3"/>
<path d="M21.1365 12.7571C21.1456 12.6753 21.2091 12.6208 21.2818 12.6208L22.1265 12.6844C22.199 12.6935 22.2626 12.7571 22.2535 12.8388C22.2445 12.9206 22.1809 12.975 22.1082 12.975L21.2636 12.9115C21.1909 12.9024 21.1365 12.8297 21.1365 12.7571ZM22.2445 12.8388C22.2535 12.7753 22.199 12.7117 22.1355 12.7117L21.2908 12.6481C21.2273 12.6481 21.1728 12.6935 21.1637 12.7663C21.1547 12.8297 21.2091 12.8933 21.2727 12.8933L22.1174 12.9569C22.1809 12.9569 22.2354 12.9025 22.2445 12.8388Z" fill="white"/>
<path d="M19.9741 13.4202C19.9922 13.3475 20.0558 13.302 20.1285 13.3112L21.9902 13.6836C22.0629 13.7017 22.1084 13.7653 22.0902 13.8379C22.072 13.9106 22.0084 13.956 21.9358 13.9469L20.0739 13.5746C20.0103 13.5655 19.965 13.4928 19.9741 13.4202Z" fill="#F3F3F3"/>
<path d="M19.965 13.42C19.9832 13.3383 20.0559 13.2929 20.1285 13.3019L21.9903 13.6744C22.063 13.6925 22.1174 13.7651 22.0992 13.8469C22.0811 13.9286 22.0085 13.9741 21.9358 13.965L20.074 13.5926C20.0013 13.5744 19.9559 13.5018 19.965 13.4201V13.42ZM22.0811 13.8469C22.0902 13.7833 22.054 13.7198 21.9903 13.7016L20.1284 13.3292C20.065 13.3202 20.0013 13.3565 19.9831 13.4291C19.9741 13.4927 20.0104 13.5563 20.0741 13.5744L21.9358 13.9468C22.0085 13.9559 22.063 13.9104 22.0811 13.8469Z" fill="white"/>
<path d="M20.7916 14.5099C20.7957 14.4926 20.8033 14.4763 20.8137 14.4619C20.8242 14.4475 20.8374 14.4354 20.8526 14.4261C20.8678 14.4168 20.8846 14.4106 20.9022 14.4079C20.9197 14.4051 20.9377 14.4059 20.955 14.41L21.7724 14.637C21.845 14.6552 21.8813 14.7279 21.8632 14.8005C21.8591 14.8178 21.8515 14.8341 21.8411 14.8485C21.8306 14.8629 21.8174 14.8751 21.8022 14.8844C21.787 14.8937 21.7701 14.8999 21.7526 14.9026C21.735 14.9054 21.717 14.9046 21.6997 14.9004L20.8823 14.6734C20.8097 14.6552 20.7734 14.5825 20.7915 14.5099H20.7916Z" fill="#F3F3F3"/>
<path d="M20.7823 14.5098C20.8005 14.4372 20.8822 14.3827 20.9549 14.41L21.7723 14.637C21.8449 14.6551 21.8904 14.7369 21.8722 14.8096C21.854 14.8822 21.7723 14.9367 21.6996 14.9095L20.8822 14.6824C20.8096 14.6642 20.7641 14.5916 20.7824 14.5099L20.7823 14.5098ZM21.8449 14.8096C21.8631 14.746 21.8267 14.6733 21.7632 14.6551L20.9458 14.4281C20.8822 14.4099 20.8186 14.4463 20.8005 14.5189C20.7824 14.5825 20.8186 14.6551 20.8822 14.6733L21.6996 14.9004C21.7632 14.9095 21.8267 14.8732 21.8449 14.8096Z" fill="white"/>
<path d="M19.5109 14.9458C19.5381 14.8732 19.6199 14.8459 19.6834 14.8732L21.4363 15.5997C21.4999 15.6269 21.5361 15.7088 21.509 15.7722C21.4817 15.845 21.3999 15.8722 21.3364 15.845L19.5835 15.1184C19.5109 15.0912 19.4836 15.0094 19.5109 14.9459V14.9458Z" fill="#F3F3F3"/>
<path d="M19.5018 14.9368C19.5151 14.9019 19.5417 14.8737 19.5757 14.8584C19.6098 14.843 19.6485 14.8419 19.6835 14.855L21.4363 15.5816C21.509 15.6089 21.5362 15.6906 21.509 15.7724C21.4957 15.8073 21.4691 15.8355 21.435 15.8508C21.401 15.8661 21.3622 15.8673 21.3273 15.8541L19.5745 15.1276C19.5018 15.0912 19.4746 15.0095 19.5018 14.9368ZM21.4908 15.7633C21.518 15.6997 21.4908 15.6271 21.4272 15.5998L19.6744 14.8732C19.6108 14.846 19.5473 14.8823 19.52 14.9459C19.4928 15.0095 19.52 15.0821 19.5835 15.1094L21.3364 15.836C21.3999 15.8541 21.4726 15.8269 21.4908 15.7633Z" fill="white"/>
<path d="M20.1013 16.1718C20.1376 16.1082 20.2102 16.0809 20.2738 16.1082L21.0276 16.4897C21.0912 16.5168 21.1184 16.5986 21.0822 16.6713C21.0458 16.7348 20.9731 16.7622 20.9096 16.7348L20.1558 16.3534C20.0922 16.3171 20.0649 16.2353 20.1013 16.1718Z" fill="#F3F3F3"/>
<path d="M20.0922 16.1628C20.1285 16.0902 20.2103 16.063 20.283 16.0993L21.0367 16.4807C21.1094 16.5171 21.1366 16.5989 21.1003 16.6714C21.064 16.7441 20.9821 16.7714 20.9096 16.735L20.1558 16.3536C20.0831 16.3264 20.0559 16.2355 20.0922 16.1628ZM21.0731 16.6623C21.1003 16.5988 21.0821 16.5261 21.0185 16.4989L20.2648 16.1174C20.2102 16.0903 20.1376 16.1174 20.1013 16.1719C20.0741 16.2355 20.0922 16.3081 20.1557 16.3354L20.9095 16.7169C20.9731 16.7441 21.0458 16.726 21.0731 16.6623Z" fill="white"/>
<path d="M18.7662 16.3445C18.8116 16.281 18.8843 16.2628 18.9478 16.3082L20.5281 17.3617C20.5917 17.398 20.6008 17.4798 20.5645 17.5433C20.519 17.607 20.4463 17.6251 20.3828 17.5797L18.8025 16.5261C18.739 16.4807 18.7208 16.399 18.7662 16.3445Z" fill="#F3F3F3"/>
<path d="M18.757 16.3354C18.8024 16.2718 18.8933 16.2537 18.9568 16.29L20.5371 17.3435C20.6007 17.3889 20.6188 17.4706 20.5734 17.5433C20.528 17.6069 20.4372 17.625 20.3737 17.5887L18.7933 16.5352C18.7207 16.4898 18.7116 16.399 18.757 16.3354ZM20.5462 17.5342C20.5825 17.4798 20.5734 17.398 20.519 17.3617L18.9387 16.3081C18.8842 16.2718 18.8115 16.29 18.7752 16.3445C18.7389 16.399 18.748 16.4807 18.8023 16.517L20.3827 17.5706C20.4372 17.6069 20.5098 17.5887 20.5462 17.5343V17.5342Z" fill="white"/>
<path d="M19.1021 17.6614C19.1475 17.6068 19.2292 17.5887 19.2837 17.6342L19.9467 18.1518C20.0011 18.1972 20.0102 18.2789 19.9649 18.3335C19.9195 18.3879 19.8377 18.4061 19.7832 18.3607L19.1202 17.843C19.0658 17.7976 19.0566 17.7159 19.1021 17.6614Z" fill="#F3F3F3"/>
<path d="M19.0931 17.6523C19.1385 17.5887 19.2293 17.5796 19.2929 17.6251L19.9559 18.1427C20.0194 18.1881 20.0285 18.2789 19.9831 18.3425C19.9377 18.4061 19.8468 18.4151 19.7834 18.3698L19.1203 17.8521C19.0567 17.8067 19.0477 17.7159 19.0931 17.6523ZM19.965 18.3335C20.0103 18.2789 20.0012 18.2063 19.9468 18.1609L19.2838 17.6432C19.2293 17.6069 19.1566 17.616 19.1113 17.6704C19.0658 17.7249 19.0749 17.7976 19.1294 17.843L19.7924 18.3607C19.8468 18.397 19.9195 18.3879 19.9649 18.3335H19.965Z" fill="white"/>
<path d="M17.7489 17.5706C17.8034 17.5162 17.8852 17.5162 17.9306 17.5706L19.2747 18.9056C19.3292 18.9602 19.3201 19.0419 19.2747 19.0873C19.2203 19.1418 19.1384 19.1418 19.0931 19.0873L17.7489 17.7523C17.7035 17.7069 17.7035 17.616 17.7489 17.5706Z" fill="#F3F3F3"/>
<path d="M17.7491 17.5614C17.7757 17.5352 17.8116 17.5205 17.849 17.5205C17.8864 17.5205 17.9223 17.5352 17.949 17.5614L19.2931 18.8964C19.3193 18.9231 19.334 18.959 19.334 18.9964C19.334 19.0338 19.3193 19.0696 19.2931 19.0963C19.2664 19.1225 19.2305 19.1372 19.1932 19.1372C19.1558 19.1372 19.1199 19.1225 19.0933 19.0963L17.7491 17.7613C17.6855 17.7067 17.6855 17.616 17.7491 17.5614ZM19.2749 19.0781C19.3203 19.0327 19.3203 18.951 19.2749 18.9056L17.9308 17.5705C17.8854 17.5251 17.8036 17.5251 17.7583 17.5705C17.7128 17.6159 17.7128 17.6976 17.7583 17.743L19.1024 19.0781C19.1477 19.1327 19.2205 19.1327 19.2749 19.0781Z" fill="white"/>
<path d="M17.8307 18.9238C17.8852 18.8785 17.9669 18.8785 18.0124 18.9329L18.5664 19.5687C18.6117 19.6232 18.6027 19.705 18.5481 19.7503C18.4938 19.7957 18.4119 19.7957 18.3666 19.7412L17.8125 19.1055C17.7671 19.0602 17.7762 18.9784 17.8307 18.9238Z" fill="#F3F3F3"/>
<path d="M17.8216 18.9238C17.8851 18.8694 17.9669 18.8784 18.0213 18.9329L18.5753 19.5686C18.6298 19.6231 18.6207 19.7139 18.5571 19.7685C18.4936 19.8229 18.4118 19.8138 18.3573 19.7594L17.8033 19.1236C17.7579 19.0601 17.7579 18.9692 17.8215 18.9238H17.8216ZM18.5481 19.7503C18.6025 19.7049 18.6025 19.6321 18.5662 19.5778L18.0122 18.9419C17.9668 18.8966 17.8941 18.8875 17.8397 18.9329C17.7852 18.9783 17.7852 19.051 17.8215 19.1054L18.3755 19.7412C18.4209 19.7956 18.4937 19.7956 18.548 19.7503H18.5481Z" fill="white"/>
<path d="M16.5228 18.5787C16.5864 18.5333 16.6681 18.5515 16.7045 18.615L17.7579 20.1862C17.7943 20.2498 17.7761 20.3315 17.7216 20.3679C17.6581 20.4133 17.5763 20.3951 17.5399 20.3315L16.4865 18.7603C16.4501 18.6968 16.4683 18.6149 16.5227 18.5787H16.5228Z" fill="#F3F3F3"/>
<path d="M16.5227 18.5694C16.5863 18.524 16.6771 18.5422 16.7225 18.6058L17.7761 20.177C17.8215 20.2405 17.8033 20.3313 17.7307 20.3767C17.6671 20.4222 17.5763 20.404 17.5308 20.3404L16.4774 18.7692C16.432 18.6966 16.4502 18.6148 16.5227 18.5695V18.5694ZM17.7216 20.3586C17.7761 20.3222 17.7943 20.2496 17.7579 20.1951L16.7044 18.6238C16.6681 18.5695 16.5954 18.5603 16.5319 18.5967C16.4774 18.6329 16.4592 18.7056 16.4956 18.7602L17.549 20.3313C17.5854 20.3767 17.6671 20.3949 17.7215 20.3585L17.7216 20.3586Z" fill="white"/>
<path d="M16.3321 19.9228C16.3957 19.8865 16.4774 19.9047 16.5137 19.9682L16.9316 20.7039C16.9678 20.7675 16.9406 20.8492 16.877 20.8855C16.8134 20.9219 16.7317 20.9037 16.6954 20.8401L16.2777 20.1045C16.2504 20.0409 16.2686 19.9591 16.332 19.9229L16.3321 19.9228Z" fill="#F3F3F3"/>
<path d="M16.3322 19.9136C16.4048 19.8772 16.4866 19.8954 16.5229 19.9589L16.9406 20.6946C16.977 20.7582 16.9588 20.849 16.8862 20.8853C16.8135 20.9217 16.7317 20.9035 16.6955 20.8399L16.2777 20.1042C16.2413 20.0407 16.2595 19.9589 16.3321 19.9136H16.3322ZM16.8771 20.8763C16.9316 20.8399 16.9588 20.7672 16.9225 20.7128L16.5048 19.9771C16.4684 19.9227 16.3957 19.9045 16.3413 19.9317C16.2867 19.968 16.2595 20.0407 16.2958 20.0952L16.7137 20.8308C16.7408 20.8853 16.8226 20.9126 16.8771 20.8762V20.8763Z" fill="white"/>
<path d="M15.1242 19.3232C15.1969 19.2961 15.2695 19.3232 15.2968 19.3868L16.0325 21.1396C16.0597 21.2032 16.0234 21.285 15.9598 21.3121C15.8962 21.3394 15.8145 21.3122 15.7873 21.2486L15.0517 19.4958C15.0244 19.4322 15.0607 19.3505 15.1242 19.3232Z" fill="#F3F3F3"/>
<path d="M15.1242 19.3143C15.1968 19.2871 15.2786 19.3143 15.3149 19.3869L16.0506 21.1398C16.0638 21.1747 16.0626 21.2134 16.0472 21.2475C16.0319 21.2815 16.0037 21.3081 15.9688 21.3214C15.8962 21.3487 15.8144 21.3214 15.7782 21.2487L15.0425 19.496C15.0152 19.4323 15.0516 19.3507 15.1242 19.3143ZM15.9507 21.3033C16.0142 21.276 16.0415 21.2034 16.0142 21.1489L15.2786 19.396C15.2514 19.3325 15.1787 19.3052 15.1152 19.3325C15.0516 19.3597 15.0242 19.4323 15.0516 19.4869L15.7872 21.2397C15.8235 21.3033 15.8871 21.3305 15.9507 21.3033Z" fill="white"/>
<path d="M14.6791 20.613C14.7518 20.5858 14.8244 20.6221 14.8517 20.6948L15.1151 21.494C15.1423 21.5576 15.0969 21.6393 15.0333 21.6575C14.9607 21.6847 14.888 21.6484 14.8608 21.5757L14.5974 20.7765C14.5702 20.713 14.6065 20.6403 14.6792 20.613H14.6791Z" fill="#F3F3F3"/>
<path d="M14.6702 20.604C14.7051 20.5909 14.7438 20.5921 14.7779 20.6074C14.8119 20.6227 14.8385 20.6509 14.8518 20.6858L15.1152 21.485C15.1424 21.5577 15.097 21.6394 15.0243 21.6667C14.9894 21.6799 14.9506 21.6787 14.9166 21.6633C14.8826 21.648 14.856 21.6198 14.8427 21.5849L14.5793 20.7857C14.5612 20.7131 14.5975 20.6313 14.6702 20.604ZM15.0244 21.6484C15.0879 21.6303 15.1242 21.5577 15.1061 21.4941L14.8427 20.6949C14.8246 20.6313 14.7519 20.604 14.6884 20.6222C14.6247 20.6404 14.5884 20.7131 14.6066 20.7766L14.87 21.5759C14.8746 21.5913 14.8824 21.6055 14.8929 21.6177C14.9034 21.6299 14.9164 21.6398 14.931 21.6466C14.9455 21.6535 14.9614 21.6572 14.9775 21.6575C14.9936 21.6578 15.0095 21.6548 15.0244 21.6485V21.6484Z" fill="white"/>
<path d="M13.6076 19.7867C13.6801 19.7685 13.7529 19.8139 13.7619 19.8866L14.1434 21.7485C14.1615 21.821 14.107 21.8847 14.0343 21.9028C13.9618 21.921 13.889 21.8756 13.88 21.8029L13.4984 19.941C13.4894 19.8775 13.5348 19.8048 13.6075 19.7866L13.6076 19.7867Z" fill="#F3F3F3"/>
<path d="M13.6077 19.7774C13.6894 19.7593 13.762 19.8138 13.7802 19.8865L14.1617 21.7483C14.1799 21.8209 14.1253 21.9026 14.0526 21.9117C13.9709 21.9299 13.8982 21.8755 13.8801 21.8028L13.4986 19.9409C13.4805 19.8683 13.5259 19.7956 13.6076 19.7775L13.6077 19.7774ZM14.0344 21.8936C14.0981 21.8846 14.1435 21.8209 14.1344 21.7482L13.7529 19.8865C13.7439 19.8229 13.6713 19.7775 13.6076 19.7956C13.544 19.8047 13.4987 19.8683 13.5078 19.9409L13.8892 21.8028C13.9073 21.8664 13.9709 21.9026 14.0345 21.8936L14.0344 21.8936Z" fill="white"/>
<path d="M12.9174 20.9672C12.99 20.9581 13.0536 21.0036 13.0718 21.0762L13.1807 21.9117C13.1898 21.9844 13.1353 22.048 13.0626 22.0571C12.99 22.0662 12.9265 22.0208 12.9083 21.9481L12.7993 21.1125C12.7902 21.0399 12.8447 20.9763 12.9174 20.9672Z" fill="#F3F3F3"/>
<path d="M12.9174 20.958C12.9992 20.949 13.0718 21.0035 13.0809 21.0761L13.1899 21.9116C13.199 21.9843 13.1445 22.0569 13.0627 22.066C12.981 22.0751 12.9083 22.0207 12.8992 21.9479L12.7903 21.1124C12.7812 21.0398 12.8357 20.9671 12.9174 20.958ZM13.0536 22.0479C13.1172 22.0389 13.1718 21.9752 13.1627 21.9116L13.0536 21.0761C13.0445 21.0126 12.981 20.9671 12.9174 20.9762C12.8539 20.9853 12.7993 21.0488 12.8084 21.1124L12.9174 21.948C12.9265 22.0116 12.9901 22.0569 13.0536 22.0479Z" fill="white"/>
<path d="M11.9819 19.95C12.0546 19.95 12.1181 20.0045 12.1181 20.0772V21.9752C12.1181 22.0479 12.0546 22.1025 11.9819 22.1025C11.9093 22.1025 11.8457 22.0479 11.8457 21.9752V20.0772C11.8548 20.0045 11.9093 19.95 11.9819 19.95Z" fill="#F3F3F3"/>
<path d="M11.982 19.9409C12.0637 19.9409 12.1273 20.0045 12.1273 20.0771V21.9753C12.1273 22.048 12.0637 22.1115 11.982 22.1115C11.9002 22.1115 11.8367 22.048 11.8367 21.9753V20.0772C11.8367 20.0046 11.9093 19.9409 11.982 19.9409ZM11.982 22.0934C12.0455 22.0934 12.1091 22.039 12.1091 21.9753V20.0772C12.1091 20.0136 12.0546 19.9591 11.982 19.9591C11.9184 19.9591 11.8549 20.0136 11.8549 20.0772V21.9753C11.8639 22.039 11.9184 22.0934 11.982 22.0934Z" fill="white"/>
<path d="M11.0736 20.9673C11.1463 20.9764 11.2007 21.0309 11.2007 21.1035L11.1372 21.9482C11.1282 22.0209 11.0645 22.0753 10.9919 22.0663C10.9192 22.0571 10.8647 22.0027 10.8647 21.93L10.9283 21.0853C10.9374 21.0128 11.001 20.9582 11.0736 20.9673Z" fill="#F3F3F3"/>
<path d="M11.0737 20.958C11.1554 20.9671 11.2099 21.0307 11.2099 21.1033L11.1463 21.948C11.1372 22.0207 11.0737 22.0842 10.9919 22.0751C10.9103 22.066 10.8557 22.0025 10.8557 21.9298L10.9193 21.0851C10.9284 21.0035 10.9919 20.949 11.0737 20.958ZM10.9919 22.0569C11.0555 22.0569 11.1191 22.0116 11.1191 21.948L11.1827 21.1033C11.1827 21.0398 11.1372 20.9853 11.0646 20.9762C11.001 20.9762 10.9375 21.0216 10.9375 21.0852L10.8739 21.9298C10.8739 21.9934 10.9284 22.0479 10.992 22.0569H10.9919Z" fill="white"/>
<path d="M10.3927 19.7866C10.4653 19.8047 10.5107 19.8682 10.5016 19.9409L10.1292 21.8028C10.1111 21.8754 10.0475 21.9209 9.97484 21.9026C9.90218 21.8845 9.85681 21.8209 9.8659 21.7482L10.2383 19.8864C10.2474 19.8228 10.32 19.7775 10.3927 19.7866Z" fill="#F3F3F3"/>
<path d="M10.3926 19.7774C10.4742 19.7956 10.5197 19.8684 10.5106 19.9409L10.1382 21.8028C10.12 21.8755 10.0474 21.9299 9.96571 21.9118C9.88396 21.8936 9.83849 21.8209 9.84758 21.7483L10.22 19.8865C10.2381 19.8138 10.3108 19.7684 10.3925 19.7775L10.3926 19.7774ZM9.96571 21.8936C10.0293 21.9027 10.0928 21.8664 10.111 21.8028L10.4833 19.9409C10.4924 19.8774 10.4561 19.8138 10.3835 19.7956C10.3199 19.7866 10.2563 19.8229 10.2381 19.8866L9.86577 21.7483C9.85668 21.8209 9.90205 21.8755 9.96571 21.8936Z" fill="white"/>
<path d="M9.30272 20.604C9.37547 20.6222 9.42085 20.6948 9.40266 20.7675L9.1756 21.5849C9.1575 21.6575 9.08485 21.6938 9.01219 21.6757C8.99488 21.6716 8.97857 21.664 8.96418 21.6536C8.94978 21.6431 8.9376 21.6299 8.92832 21.6147C8.91903 21.5995 8.91284 21.5826 8.91008 21.5651C8.90732 21.5475 8.90806 21.5295 8.91225 21.5122L9.13932 20.6948C9.1575 20.6222 9.23016 20.5859 9.30282 20.604H9.30272Z" fill="#F3F3F3"/>
<path d="M9.30267 20.5949C9.37542 20.613 9.42989 20.6948 9.40261 20.7674L9.17555 21.5848C9.15745 21.6575 9.0757 21.703 9.00305 21.6847C8.93039 21.6666 8.87592 21.5848 8.90311 21.5122L9.13017 20.6948C9.14836 20.6221 9.22102 20.5766 9.30267 20.5948V20.5949ZM9.00305 21.6575C9.06661 21.6757 9.13927 21.6393 9.15745 21.5757L9.38442 20.7583C9.40261 20.6948 9.36633 20.6312 9.29367 20.613C9.23011 20.5948 9.15745 20.6312 9.13927 20.6948L8.9122 21.5122C8.90311 21.5757 8.93939 21.6393 9.00305 21.6575Z" fill="white"/>
<path d="M8.85778 19.3233C8.93044 19.3505 8.95763 19.4322 8.93044 19.4958L8.20388 21.2486C8.17669 21.3123 8.09485 21.3486 8.03138 21.3123C7.96772 21.2759 7.93135 21.2033 7.95863 21.1397L8.68519 19.3869C8.71238 19.3233 8.79422 19.2869 8.85769 19.3233H8.85778Z" fill="#F3F3F3"/>
<path d="M8.85756 19.3143C8.89246 19.3276 8.92066 19.3542 8.93599 19.3882C8.95131 19.4223 8.95251 19.461 8.93931 19.496L8.21275 21.2487C8.18547 21.3214 8.10372 21.3487 8.02197 21.3214C7.98709 21.3081 7.95891 21.2815 7.94359 21.2475C7.92827 21.2134 7.92705 21.1747 7.94022 21.1398L8.66678 19.3869C8.70316 19.3143 8.78491 19.278 8.85756 19.3143ZM8.03106 21.3033C8.09462 21.3305 8.16728 21.3033 8.19456 21.2397L8.92113 19.4869C8.94831 19.4233 8.91203 19.3597 8.84847 19.3325C8.78491 19.3053 8.71225 19.3325 8.68497 19.396L7.95841 21.1489C7.94022 21.2033 7.9675 21.276 8.03106 21.3033Z" fill="white"/>
<path d="M7.63151 19.9045C7.69508 19.9408 7.72226 20.0134 7.69508 20.077L7.31361 20.8308C7.27723 20.8944 7.20458 20.9217 7.13192 20.8853C7.06836 20.849 7.04117 20.7764 7.06836 20.7128L7.44992 19.959C7.4862 19.8954 7.55886 19.8681 7.63151 19.9045Z" fill="#F3F3F3"/>
<path d="M7.63166 19.8956C7.70432 19.9319 7.7315 20.0138 7.69522 20.0863L7.31375 20.8402C7.27738 20.9128 7.19563 20.9401 7.12306 20.9037C7.05041 20.8675 7.02313 20.7856 7.0595 20.713L7.44088 19.9593C7.47725 19.8865 7.559 19.8594 7.63166 19.8956ZM7.13216 20.8856C7.19572 20.9128 7.26838 20.8946 7.29556 20.8311L7.67703 20.0773C7.70422 20.0228 7.67704 19.9501 7.62257 19.9138C7.559 19.8866 7.48635 19.9047 7.45907 19.9683L7.0776 20.722C7.05041 20.7766 7.0776 20.8493 7.13216 20.8855V20.8856Z" fill="white"/>
<path d="M7.45004 18.5604C7.51361 18.6058 7.53179 18.6876 7.48642 18.742L6.43286 20.3133C6.39658 20.3768 6.31473 20.3859 6.25126 20.3496C6.1877 20.3041 6.16951 20.2224 6.21489 20.1679L7.26845 18.5966C7.30473 18.5332 7.38648 18.515 7.45004 18.5604V18.5604Z" fill="#F3F3F3"/>
<path d="M7.45004 18.5513C7.51361 18.5968 7.53179 18.6876 7.49542 18.7512L6.44195 20.3224C6.39657 20.3859 6.31482 20.4041 6.24217 20.3587C6.1786 20.3133 6.16042 20.2225 6.1967 20.1588L7.25026 18.5877C7.29564 18.5241 7.38648 18.5059 7.45004 18.5513ZM6.25126 20.3405C6.30564 20.3768 6.38748 20.3677 6.42376 20.3133L7.47732 18.7421C7.51361 18.6876 7.49551 18.615 7.44095 18.5786C7.38648 18.5423 7.30473 18.5514 7.26845 18.6058L6.21489 20.1679C6.1786 20.2225 6.1967 20.3042 6.25126 20.3404V20.3405Z" fill="white"/>
<path d="M6.12395 18.8965C6.17851 18.9419 6.19661 19.0236 6.15123 19.0781L5.62445 19.7411C5.57907 19.7956 5.49732 19.8047 5.44286 19.7593C5.38839 19.7139 5.3702 19.6322 5.41567 19.5776L5.94236 18.9146C5.98773 18.8602 6.06948 18.8511 6.12395 18.8965Z" fill="#F3F3F3"/>
<path d="M6.13307 18.8876C6.19663 18.933 6.20572 19.0238 6.16026 19.0874L5.63357 19.7504C5.58819 19.8139 5.49735 19.823 5.43379 19.7686C5.37022 19.7231 5.36113 19.6323 5.4066 19.5687L5.93329 18.9058C5.97866 18.8421 6.06951 18.8331 6.13307 18.8876ZM5.45197 19.7504C5.50635 19.7958 5.5791 19.7868 5.62447 19.7322L6.15126 19.0692C6.18763 19.0148 6.17844 18.9421 6.12407 18.8967C6.06951 18.8512 5.99685 18.8603 5.95147 18.9149L5.42469 19.5778C5.38841 19.6323 5.3975 19.714 5.45188 19.7504H5.45197Z" fill="white"/>
<path d="M6.21491 17.5343C6.26938 17.5887 6.26938 17.6705 6.21491 17.7159L4.87082 19.0509C4.81626 19.1055 4.7346 19.0964 4.68913 19.0509C4.64376 19.0056 4.63466 18.9147 4.68913 18.8693L6.02413 17.5343C6.07869 17.4798 6.16045 17.4798 6.21491 17.5343Z" fill="#F3F3F3"/>
<path d="M6.22371 17.5252C6.24988 17.5519 6.26454 17.5877 6.26454 17.6251C6.26454 17.6624 6.24988 17.6983 6.22371 17.7249L4.87952 19.0601C4.85288 19.0863 4.81702 19.101 4.77968 19.101C4.74233 19.101 4.70648 19.0863 4.67983 19.0601C4.65361 19.0335 4.63892 18.9976 4.63892 18.9602C4.63892 18.9228 4.65361 18.8869 4.67983 18.8602L6.02393 17.5252C6.05058 17.4991 6.08645 17.4844 6.12382 17.4844C6.16119 17.4844 6.19706 17.4991 6.22371 17.5252ZM4.68883 19.0509C4.73421 19.0963 4.81596 19.0963 4.86133 19.0509L6.20552 17.7158C6.25099 17.6705 6.25099 17.5887 6.20552 17.5433C6.16015 17.4979 6.0784 17.4979 6.03302 17.5433L4.68883 18.8783C4.64346 18.9237 4.64346 18.9965 4.68883 19.0508V19.0509Z" fill="white"/>
<path d="M4.85245 17.6069C4.89783 17.6612 4.89783 17.7431 4.84336 17.7885L4.19855 18.3334C4.14408 18.3788 4.06233 18.3697 4.01686 18.3152C3.97148 18.2607 3.97148 18.179 4.02595 18.1336L4.67077 17.5887C4.72533 17.5432 4.80698 17.5523 4.85245 17.6069Z" fill="#F3F3F3"/>
<path d="M4.86155 17.5978C4.91601 17.6615 4.90692 17.7522 4.85245 17.7977L4.20764 18.3426C4.15317 18.3971 4.06233 18.388 4.00786 18.3245C3.9533 18.2608 3.96239 18.1701 4.01686 18.1246L4.66176 17.5797C4.71614 17.5252 4.80708 17.5343 4.86145 17.5979L4.86155 17.5978ZM4.02595 18.3154C4.07142 18.3698 4.14408 18.3698 4.19845 18.3336L4.84336 17.7886C4.88873 17.7432 4.89783 17.6705 4.85245 17.6161C4.80698 17.5615 4.73433 17.5615 4.67995 17.5979L4.03505 18.1428C3.98058 18.1881 3.98058 18.2609 4.02595 18.3153V18.3154Z" fill="white"/>
<path d="M5.21582 16.2991C5.26119 16.3627 5.243 16.4444 5.17944 16.4808L3.59919 17.5343C3.53563 17.5706 3.45388 17.5524 3.4176 17.4979C3.37213 17.4344 3.39032 17.3526 3.45388 17.3163L5.03422 16.2628C5.08878 16.2265 5.17044 16.2446 5.21591 16.2991H5.21582Z" fill="#F3F3F3"/>
<path d="M5.22494 16.2991C5.27032 16.3628 5.25213 16.4535 5.18857 16.499L3.60832 17.5525C3.54476 17.5979 3.45391 17.5796 3.40854 17.5071C3.36307 17.4435 3.38135 17.3527 3.44482 17.3073L5.02516 16.2537C5.08872 16.2084 5.17947 16.2265 5.22485 16.2991H5.22494ZM3.42673 17.4889C3.46301 17.5434 3.53566 17.5615 3.59013 17.5253L5.17038 16.4717C5.22494 16.4354 5.24304 16.3628 5.19766 16.2992C5.16138 16.2446 5.08872 16.2265 5.03416 16.2628L3.45391 17.3164C3.39944 17.3618 3.39035 17.4344 3.42673 17.4889Z" fill="white"/>
<path d="M3.86252 16.1084C3.89889 16.1719 3.8807 16.2537 3.81714 16.2901L3.08148 16.7078C3.01792 16.7441 2.93617 16.7169 2.89989 16.6533C2.86352 16.5898 2.8817 16.508 2.94527 16.4716L3.68092 16.0539C3.74448 16.0175 3.82623 16.0448 3.86261 16.1084H3.86252Z" fill="#F3F3F3"/>
<path d="M3.8717 16.0991C3.90798 16.1717 3.8898 16.2535 3.82623 16.2899L3.09058 16.7076C3.02702 16.7439 2.93617 16.7167 2.89989 16.6532C2.86352 16.5805 2.8817 16.4987 2.94527 16.4624L3.68092 16.0446C3.74448 16.0082 3.83533 16.0355 3.87161 16.0991H3.8717ZM2.90889 16.6441C2.94527 16.7076 3.01792 16.7258 3.07239 16.6894L3.80805 16.2717C3.86251 16.2353 3.8807 16.1626 3.85351 16.1082C3.81714 16.0446 3.74448 16.0264 3.69002 16.0628L2.95436 16.4806C2.89989 16.5077 2.8817 16.5805 2.90898 16.6441H2.90889Z" fill="white"/>
<path d="M4.47102 14.9004C4.49821 14.973 4.47102 15.0457 4.39837 15.0729L2.64553 15.7994C2.58196 15.8267 2.50021 15.7904 2.47303 15.7268C2.44574 15.6541 2.47303 15.5815 2.54568 15.5543L4.29852 14.8277C4.36209 14.8005 4.44384 14.8277 4.47102 14.9004Z" fill="#F3F3F3"/>
<path d="M4.48012 14.8914C4.5073 14.964 4.48012 15.0458 4.40746 15.082L2.65462 15.8086C2.61969 15.8218 2.58097 15.8206 2.54694 15.8052C2.5129 15.7899 2.48633 15.7617 2.47303 15.7269C2.44574 15.6542 2.47303 15.5724 2.54568 15.5362L4.29852 14.8096C4.33345 14.7964 4.37217 14.7977 4.40621 14.813C4.44024 14.8283 4.46682 14.8565 4.48012 14.8914ZM2.49112 15.7178C2.5184 15.7814 2.59106 15.8087 2.64553 15.7904L4.39837 15.0639C4.46193 15.0367 4.48921 14.964 4.46193 14.9004C4.43474 14.8369 4.36209 14.8096 4.30752 14.8278L2.55468 15.5544C2.49112 15.5815 2.46393 15.6542 2.49112 15.7179V15.7178Z" fill="white"/>
<path d="M3.1907 14.4462C3.21789 14.5189 3.1816 14.5916 3.10895 14.6187L2.30973 14.8822C2.24617 14.9094 2.16442 14.864 2.14623 14.8004C2.11904 14.7278 2.15532 14.6551 2.22798 14.6279L3.0272 14.3645C3.09076 14.3373 3.16342 14.3736 3.1907 14.4462Z" fill="#F3F3F3"/>
<path d="M3.19947 14.4372C3.22675 14.5099 3.19047 14.5917 3.10872 14.6189L2.3095 14.8823C2.23685 14.9095 2.1551 14.8641 2.12782 14.7914C2.10063 14.7188 2.13691 14.637 2.21875 14.6098L3.01788 14.3464C3.09053 14.3283 3.17228 14.3646 3.19957 14.4373L3.19947 14.4372ZM2.1461 14.7824C2.16428 14.846 2.23694 14.8824 2.3005 14.8642L3.09972 14.6007C3.16328 14.5826 3.19057 14.51 3.17238 14.4464C3.15419 14.3829 3.08153 14.3465 3.01797 14.3647L2.21875 14.6281C2.15519 14.6553 2.12791 14.7189 2.1461 14.7824Z" fill="white"/>
<path d="M4.00784 13.3655C4.02593 13.4382 3.98056 13.5108 3.9079 13.5199L2.04602 13.8832C1.97337 13.9014 1.90981 13.8469 1.89171 13.7742C1.87352 13.7015 1.9189 13.6289 1.99156 13.6198L3.85343 13.2565C3.92609 13.2475 3.99874 13.2929 4.00774 13.3655H4.00784Z" fill="#F3F3F3"/>
<path d="M4.02593 13.3657C4.04412 13.4474 3.98965 13.5201 3.91699 13.5382L2.05512 13.9015C1.98246 13.9197 1.90981 13.8652 1.89171 13.7834C1.87353 13.7017 1.92799 13.629 2.00065 13.6109L3.86252 13.2476C3.93509 13.2295 4.00784 13.2839 4.02593 13.3657ZM1.90981 13.7744C1.9189 13.8379 1.98246 13.8834 2.04603 13.8743L3.9079 13.511C3.97146 13.5019 4.01684 13.4292 3.99874 13.3657C3.98965 13.3021 3.92609 13.2567 3.86243 13.2657L2.00065 13.629C1.93709 13.6472 1.89171 13.7108 1.90981 13.7743V13.7744Z" fill="white"/>
<path d="M2.84539 12.6662C2.85439 12.7388 2.80902 12.8025 2.73636 12.8116L1.90086 12.9114C1.82811 12.9205 1.76455 12.866 1.75555 12.7933C1.74646 12.7207 1.79183 12.6571 1.86449 12.648L2.70008 12.5481C2.76364 12.539 2.8363 12.5935 2.84539 12.6662Z" fill="#F3F3F3"/>
<path d="M2.85463 12.6663C2.86363 12.748 2.80916 12.8206 2.7365 12.8297L1.901 12.9296C1.82825 12.9387 1.75569 12.8843 1.7466 12.8025C1.7375 12.7208 1.79197 12.6481 1.86463 12.639L2.70022 12.5391C2.77279 12.53 2.84554 12.5845 2.85454 12.6662L2.85463 12.6663ZM1.7556 12.7934C1.76469 12.857 1.82835 12.9115 1.89191 12.9024L2.72741 12.8025C2.79097 12.7934 2.83644 12.7299 2.82735 12.6663C2.81825 12.6026 2.75469 12.5482 2.69113 12.5573L1.85554 12.6572C1.79197 12.6663 1.7466 12.7299 1.7556 12.7934Z" fill="white"/>
<path d="M3.86252 11.7851C3.86252 11.8579 3.80814 11.9215 3.73539 11.9215H1.83733C1.76467 11.9215 1.71021 11.8579 1.71021 11.7852C1.71021 11.7126 1.76467 11.6489 1.83733 11.6489H3.73549C3.80814 11.6489 3.8627 11.7126 3.8627 11.7852L3.86252 11.7851Z" fill="#F3F3F3"/>
<path d="M3.87177 11.7852C3.87177 11.867 3.80811 11.9305 3.73545 11.9305H1.83739C1.76473 11.9305 1.70117 11.867 1.70117 11.7852C1.70117 11.7035 1.76473 11.6399 1.83739 11.6399H3.73555C3.8082 11.6399 3.87177 11.7035 3.87177 11.7852ZM1.71927 11.7762C1.71927 11.8398 1.77373 11.9033 1.83739 11.9033H3.73545C3.79902 11.9033 3.85358 11.8489 3.85358 11.7762C3.85358 11.7126 3.79902 11.649 3.73545 11.649H1.83739C1.77383 11.6581 1.71936 11.7126 1.71936 11.7762H1.71927Z" fill="white"/>
<path d="M2.8544 10.8681C2.84521 10.9407 2.79074 10.9952 2.71809 10.9952L1.8734 10.9316C1.80084 10.9225 1.74637 10.859 1.75537 10.7863C1.76446 10.7136 1.81902 10.6592 1.89168 10.6592L2.73627 10.7227C2.79984 10.7318 2.8544 10.7954 2.8544 10.8681Z" fill="#E2E2E2"/>
<path d="M2.86351 10.8679C2.85441 10.9496 2.79085 11.0041 2.71819 11.0041L1.87351 10.9405C1.80094 10.9314 1.73738 10.8679 1.74648 10.7861C1.75548 10.7045 1.81913 10.6499 1.89179 10.6499L2.73638 10.7135C2.80904 10.7226 2.86351 10.7952 2.86351 10.8679ZM1.75548 10.7861C1.74648 10.8497 1.80094 10.9133 1.86451 10.9133L2.70919 10.9769C2.77266 10.9769 2.82723 10.9314 2.83632 10.8588C2.84541 10.7952 2.79085 10.7317 2.72729 10.7317L1.8826 10.6681C1.81913 10.6681 1.76457 10.7226 1.75548 10.7862V10.7861Z" fill="white"/>
<path d="M4.02614 10.2049C4.00795 10.2776 3.94439 10.3231 3.87174 10.314L2.00995 9.93249C1.9373 9.9143 1.89183 9.85074 1.91002 9.77808C1.9282 9.70543 1.99177 9.65996 2.06442 9.66914L3.9263 10.0415C3.98986 10.0596 4.03524 10.1323 4.02614 10.2049Z" fill="#F3F3F3"/>
<path d="M4.03521 10.205C4.01702 10.2867 3.94436 10.3322 3.87171 10.3231L2.00993 9.95071C1.93727 9.93252 1.8828 9.85987 1.90099 9.77821C1.91908 9.69637 1.99174 9.65099 2.0644 9.66008L3.92627 10.0325C3.99893 10.0506 4.0443 10.1233 4.03521 10.205ZM1.91908 9.77812C1.90999 9.84168 1.94627 9.90524 2.00993 9.92343L3.8718 10.2958C3.93536 10.3049 3.99893 10.2686 4.01711 10.1959C4.02611 10.1323 3.98983 10.0687 3.92618 10.0506L2.06449 9.67827C1.99183 9.66918 1.93737 9.71455 1.91918 9.77812H1.91908Z" fill="white"/>
<path d="M3.20868 9.11532C3.20451 9.13262 3.19697 9.14893 3.18649 9.16331C3.17602 9.17769 3.16281 9.18986 3.14762 9.19914C3.13244 9.20841 3.11557 9.2146 3.09799 9.21735C3.08042 9.2201 3.06247 9.21936 3.04518 9.21517L2.22777 8.9881C2.15511 8.96992 2.11883 8.89726 2.13693 8.8246C2.1411 8.8073 2.14863 8.791 2.15911 8.77662C2.16959 8.76224 2.18279 8.75006 2.19798 8.74079C2.21316 8.73151 2.23003 8.72532 2.24761 8.72257C2.26519 8.71982 2.28313 8.72057 2.30043 8.72476L3.11783 8.95182C3.19049 8.96992 3.22677 9.04257 3.20868 9.11523V9.11532Z" fill="#F3F3F3"/>
<path d="M3.21763 9.11531C3.19954 9.18787 3.11779 9.24243 3.04513 9.21515L2.22773 8.98809C2.15507 8.9699 2.1096 8.88815 2.12779 8.81559C2.14598 8.74284 2.22773 8.68837 2.30038 8.71565L3.11779 8.94271C3.19045 8.9609 3.23592 9.03356 3.21763 9.11521V9.11531ZM2.15507 8.8154C2.13688 8.87906 2.17326 8.95171 2.23682 8.96981L3.05423 9.19687C3.11779 9.21506 3.18135 9.17868 3.19954 9.10603C3.21763 9.04246 3.18135 8.96981 3.11779 8.95171L2.30038 8.72465C2.23682 8.71556 2.17326 8.75184 2.15507 8.8155V8.8154Z" fill="white"/>
<path d="M4.48915 8.67931C4.46197 8.75187 4.38012 8.77916 4.31665 8.75187L2.56372 8.02531C2.50015 7.99812 2.46387 7.91637 2.49106 7.85281C2.51834 7.78015 2.60009 7.75287 2.66365 7.78015L4.4165 8.50672C4.48915 8.5339 4.51643 8.61566 4.48915 8.67922V8.67931Z" fill="#F3F3F3"/>
<path d="M4.49848 8.68831C4.48518 8.72321 4.45859 8.75141 4.42454 8.76674C4.39048 8.78206 4.35173 8.78326 4.3168 8.77006L2.56395 8.0435C2.4913 8.01631 2.46411 7.93456 2.4913 7.85281C2.5046 7.81791 2.53119 7.78971 2.56525 7.77439C2.5993 7.75906 2.63805 7.75787 2.67298 7.77106L4.42583 8.49762C4.49848 8.53391 4.52567 8.61575 4.49848 8.68831ZM2.50948 7.8619C2.4823 7.92547 2.50948 7.99812 2.57305 8.02531L4.32589 8.75188C4.38945 8.77916 4.45302 8.74278 4.4803 8.67922C4.50748 8.61566 4.4803 8.543 4.41673 8.51581L2.66389 7.78925C2.60033 7.77106 2.52767 7.79834 2.50948 7.8619Z" fill="white"/>
<path d="M3.89896 7.45324C3.86268 7.5168 3.79002 7.54408 3.72646 7.5168L2.97262 7.13542C2.90906 7.10814 2.88178 7.02639 2.91815 6.95374C2.95443 6.89017 3.02709 6.86289 3.09065 6.89017L3.8444 7.27164C3.90806 7.30792 3.93534 7.38977 3.89896 7.45324Z" fill="#F3F3F3"/>
<path d="M3.90793 7.46222C3.87155 7.53488 3.7898 7.56216 3.71715 7.52579L2.9634 7.14432C2.89074 7.10804 2.86346 7.02629 2.89983 6.95363C2.93611 6.88097 3.01796 6.85369 3.09052 6.89007L3.84427 7.27154C3.91702 7.29872 3.94421 7.38966 3.90793 7.46222ZM2.92702 6.96272C2.89983 7.02629 2.91802 7.09894 2.98158 7.12622L3.73533 7.50769C3.7899 7.53488 3.86255 7.50769 3.89883 7.45313C3.92602 7.38957 3.90793 7.31691 3.84437 7.28963L3.08133 6.90835C3.02686 6.88116 2.95421 6.89926 2.92693 6.96282L2.92702 6.96272Z" fill="white"/>
<path d="M5.23392 7.28055C5.18855 7.34421 5.11589 7.36239 5.05233 7.31692L3.48108 6.27255C3.41761 6.23618 3.40852 6.15443 3.4448 6.09086C3.48117 6.0273 3.56292 6.00911 3.62649 6.05449L5.20673 7.10805C5.2612 7.14442 5.27939 7.22617 5.23392 7.28055Z" fill="#F3F3F3"/>
<path d="M5.24315 7.28961C5.19777 7.35327 5.10693 7.37136 5.04346 7.33508L3.47221 6.28152C3.40865 6.23614 3.39046 6.15439 3.43584 6.08183C3.4813 6.01817 3.57215 5.99999 3.63571 6.03636L5.20687 7.08983C5.27952 7.1353 5.28862 7.22605 5.24315 7.28961ZM3.45402 6.09083C3.41774 6.1453 3.42684 6.22705 3.48121 6.26333L5.06155 7.31699C5.11602 7.35336 5.18868 7.33517 5.22505 7.28071C5.26134 7.22614 5.25224 7.14439 5.19787 7.10811L3.61743 6.05455C3.56296 6.01817 3.4903 6.03636 3.45393 6.09083H3.45402Z" fill="white"/>
<path d="M4.89793 5.96382C4.85255 6.01829 4.7708 6.03648 4.71633 5.99101L4.05333 5.47342C3.99887 5.42795 3.98977 5.3462 4.03515 5.29173C4.08052 5.23726 4.16227 5.21908 4.21683 5.26455L4.87974 5.78214C4.9343 5.82761 4.9434 5.90926 4.89793 5.96382Z" fill="#F3F3F3"/>
<path d="M4.90692 5.97275C4.86154 6.03641 4.7707 6.0455 4.70714 6.00003L4.04414 5.48244C3.98058 5.43706 3.97148 5.34622 4.01695 5.28275C4.06233 5.21909 4.15317 5.21 4.21664 5.25547L4.87964 5.77306C4.94329 5.81853 4.95239 5.90928 4.90692 5.97294V5.97275ZM4.03504 5.29166C3.98967 5.34612 3.99876 5.41878 4.05323 5.46416L4.71623 5.98194C4.7707 6.01822 4.84336 6.00912 4.88873 5.95466C4.9342 5.90019 4.92511 5.82753 4.87064 5.78216L4.20764 5.26437C4.15317 5.22809 4.08042 5.23719 4.03514 5.29166H4.03504Z" fill="white"/>
<path d="M6.25119 6.05454C6.19682 6.1091 6.11497 6.1091 6.0696 6.05454L4.71651 4.71954C4.66204 4.66507 4.67104 4.58332 4.71651 4.53785C4.77098 4.48348 4.85273 4.48348 4.8981 4.53785L6.24229 5.87295C6.29675 5.91832 6.29675 6.00917 6.25138 6.05463L6.25119 6.05454Z" fill="#F3F3F3"/>
<path d="M6.25115 6.06373C6.2245 6.08989 6.18865 6.10456 6.1513 6.10456C6.11396 6.10456 6.0781 6.08989 6.05146 6.06373L4.70718 4.72854C4.68096 4.70189 4.66626 4.66599 4.66626 4.6286C4.66626 4.59121 4.68096 4.55532 4.70718 4.52867C4.73383 4.50247 4.7697 4.48779 4.80707 4.48779C4.84444 4.48779 4.88031 4.50247 4.90696 4.52867L6.25115 5.86376C6.31471 5.91823 6.31471 6.00907 6.25115 6.06354V6.06373ZM4.72555 4.54685C4.68008 4.59232 4.68008 4.67407 4.72555 4.71935L6.06965 6.05445C6.11511 6.09992 6.19677 6.09992 6.24214 6.05445C6.28761 6.00907 6.28761 5.92732 6.24214 5.88195L4.89805 4.53785C4.85268 4.49248 4.77993 4.49248 4.72555 4.54695V4.54685Z" fill="white"/>
<path d="M6.16953 4.70126C6.11506 4.74672 6.03331 4.74672 5.98784 4.69216L5.43378 4.05644C5.3885 4.00197 5.3975 3.92022 5.45206 3.87485C5.50644 3.82938 5.58828 3.82938 5.63366 3.88385L6.18772 4.51966C6.23309 4.56504 6.224 4.64679 6.16953 4.70126Z" fill="#F3F3F3"/>
<path d="M6.17852 4.70132C6.11495 4.75579 6.0332 4.74679 5.97864 4.69223L5.42467 4.05651C5.3702 4.00204 5.3793 3.91119 5.44286 3.85673C5.50642 3.80216 5.58817 3.81126 5.64264 3.86582L6.1967 4.50144C6.24208 4.5651 6.24208 4.65594 6.17852 4.70132ZM5.45195 3.87491C5.39739 3.92029 5.39739 3.99294 5.43377 4.04741L5.98783 4.68313C6.0332 4.7286 6.10586 4.73769 6.16033 4.69223C6.2148 4.64685 6.2148 4.5741 6.17852 4.51973L5.62445 3.88391C5.57908 3.82954 5.50633 3.82954 5.45195 3.87491Z" fill="white"/>
<path d="M7.47729 5.04634C7.41373 5.09172 7.33198 5.07353 7.2956 5.00997L6.23304 3.43872C6.19666 3.37516 6.21485 3.29341 6.26932 3.25713C6.33288 3.21175 6.41463 3.22994 6.45101 3.2935L7.50448 4.86466C7.54995 4.92822 7.53176 5.00997 7.47729 5.04625V5.04634Z" fill="#F3F3F3"/>
<path d="M7.47729 5.05538C7.41373 5.10085 7.32289 5.08257 7.27742 5.0191L6.22395 3.44785C6.17857 3.38429 6.19676 3.29354 6.26932 3.24816C6.33288 3.20269 6.42373 3.22088 6.4692 3.28444L7.52267 4.8556C7.56804 4.92826 7.54986 5.01001 7.47729 5.05538ZM6.27832 3.26626C6.22385 3.30254 6.20567 3.37519 6.24204 3.42976L7.29551 5.00091C7.33189 5.05538 7.40454 5.06448 7.46801 5.0281C7.52257 4.99182 7.54076 4.91916 7.50439 4.86469L6.45101 3.30254C6.41464 3.24816 6.33289 3.22988 6.27851 3.26626H6.27832Z" fill="white"/>
<path d="M7.66794 3.70241C7.60437 3.73869 7.52262 3.72059 7.48634 3.65703L7.0685 2.92138C7.03222 2.85781 7.0594 2.77606 7.12306 2.73969C7.18662 2.70341 7.26837 2.7215 7.30465 2.78516L7.72241 3.52072C7.74969 3.58428 7.7315 3.66603 7.66803 3.70241H7.66794Z" fill="#F3F3F3"/>
<path d="M7.66792 3.7115C7.59526 3.74778 7.51351 3.72969 7.47723 3.66603L7.05938 2.93047C7.0231 2.86681 7.04129 2.77606 7.11395 2.73969C7.1866 2.70341 7.26835 2.7215 7.30463 2.78516L7.72239 3.52072C7.75876 3.58428 7.74057 3.66603 7.66801 3.7115H7.66792ZM7.12304 2.74878C7.06848 2.78506 7.04129 2.85772 7.07757 2.91228L7.49542 3.64794C7.5317 3.70231 7.60435 3.7206 7.65882 3.69331C7.71339 3.65703 7.74057 3.58428 7.70429 3.52981L7.28645 2.79416C7.25926 2.73978 7.17751 2.71241 7.12304 2.74878Z" fill="white"/>
<path d="M8.87578 4.30184C8.80322 4.32902 8.73047 4.30184 8.70328 4.23827L7.96762 2.48534C7.94044 2.42177 7.97672 2.34002 8.04028 2.31274C8.11294 2.28555 8.18559 2.31274 8.21278 2.3763L8.94844 4.12915C8.97572 4.19271 8.93944 4.27446 8.87578 4.30165V4.30184Z" fill="#F3F3F3"/>
<path d="M8.87587 4.31074C8.80331 4.33793 8.72156 4.31074 8.68518 4.23799L7.94953 2.48524C7.93633 2.4503 7.93753 2.41156 7.95285 2.3775C7.96818 2.34344 7.99638 2.31685 8.03128 2.30355C8.10393 2.27636 8.18568 2.30355 8.22206 2.37621L8.95762 4.12905C8.9849 4.19262 8.94862 4.27437 8.87597 4.31074H8.87587ZM8.04946 2.32174C7.9859 2.34893 7.95862 2.42168 7.9859 2.47615L8.72147 4.2289C8.74865 4.29246 8.82131 4.31965 8.88487 4.29246C8.94844 4.26527 8.97581 4.19252 8.94844 4.13805L8.21287 2.38521C8.1765 2.32165 8.11293 2.29436 8.04937 2.32165L8.04946 2.32174Z" fill="white"/>
<path d="M9.32069 3.01209C9.24803 3.03927 9.17537 3.0029 9.14819 2.93034L8.88475 2.13102C8.85756 2.06746 8.90294 1.98571 8.9665 1.96762C9.03006 1.94943 9.11181 1.97671 9.139 2.04937L9.40244 2.84859C9.42962 2.91215 9.39334 2.9848 9.32069 3.01199V3.01209Z" fill="#F3F3F3"/>
<path d="M9.32995 3.02109C9.29503 3.03426 9.25631 3.03304 9.22227 3.01772C9.18824 3.0024 9.16166 2.97422 9.14836 2.93934L8.88492 2.14012C8.85773 2.06747 8.90311 1.98581 8.97586 1.95853C9.01078 1.94537 9.0495 1.94658 9.08354 1.9619C9.11757 1.97722 9.14415 2.0054 9.15745 2.04028L9.4208 2.8395C9.43898 2.91215 9.40261 2.9939 9.32995 3.02109ZM8.97576 1.97672C8.9122 1.99481 8.87583 2.06747 8.89401 2.13103L9.15745 2.93034C9.17555 2.9939 9.2482 3.02109 9.31186 3.0029C9.37542 2.98481 9.4117 2.91215 9.39352 2.84859L9.13017 2.04928C9.12554 2.03386 9.11772 2.01959 9.10721 2.0074C9.0967 1.99521 9.08374 1.98536 9.06917 1.97851C9.05461 1.97165 9.03876 1.96794 9.02267 1.96762C9.00658 1.96729 8.99059 1.97036 8.97576 1.97662V1.97672Z" fill="white"/>
<path d="M10.3927 3.8384C10.32 3.85659 10.2474 3.81122 10.2383 3.73847L9.8568 1.87668C9.83861 1.80403 9.89317 1.74047 9.96573 1.72228C10.0385 1.70409 10.111 1.74947 10.1201 1.82222L10.5017 3.68409C10.5107 3.74756 10.4653 3.82022 10.3927 3.8384Z" fill="#F3F3F3"/>
<path d="M10.3926 3.84755C10.3108 3.86574 10.2381 3.81118 10.22 3.73852L9.83849 1.87674C9.8203 1.80409 9.87486 1.72234 9.94752 1.71324C10.0293 1.69505 10.1019 1.74962 10.12 1.82227L10.5016 3.68415C10.5197 3.75671 10.4743 3.82946 10.3926 3.84755ZM9.96571 1.73143C9.90205 1.74052 9.85667 1.80409 9.86577 1.87674L10.2472 3.73862C10.2563 3.80209 10.3289 3.84755 10.3926 3.82937C10.4561 3.82027 10.5015 3.75671 10.4924 3.68405L10.1109 1.82218C10.0928 1.75871 10.0293 1.72234 9.96561 1.73143H9.96571Z" fill="white"/>
<path d="M11.0827 2.65789C11.01 2.66699 10.9465 2.62161 10.9283 2.54895L10.8194 1.71336C10.8103 1.6407 10.8647 1.57714 10.9375 1.56805C11.01 1.55895 11.0736 1.60442 11.0918 1.67708L11.2007 2.51258C11.2098 2.58523 11.1554 2.6488 11.0827 2.65789Z" fill="#F3F3F3"/>
<path d="M11.0828 2.66687C11.001 2.67596 10.9283 2.62149 10.9193 2.54874L10.8103 1.71324C10.8012 1.64059 10.8557 1.56793 10.9374 1.55884C11.0192 1.54984 11.0918 1.6043 11.1009 1.67696L11.2099 2.51246C11.219 2.58512 11.1645 2.65777 11.0828 2.66687ZM10.9465 1.57702C10.883 1.58612 10.8284 1.64968 10.8375 1.71324L10.9465 2.54884C10.9556 2.6124 11.0192 2.65777 11.0828 2.64868C11.1463 2.63968 11.2009 2.57602 11.1918 2.51246L11.0828 1.67696C11.0737 1.6134 11.0101 1.56793 10.9465 1.57702Z" fill="white"/>
<path d="M12.0637 22.5565C18.0025 22.5565 22.8168 17.7422 22.8168 11.8034C22.8168 5.86463 18.0025 1.05029 12.0637 1.05029C6.12488 1.05029 1.31055 5.86463 1.31055 11.8034C1.31055 17.7422 6.12488 22.5565 12.0637 22.5565Z" fill="url(#paint2_linear_271_338)" fill-opacity="0.2"/>
<g filter="url(#filter1_d_271_338)">
<path d="M19.5111 4.98267L10.8377 10.5409H10.8286V10.5499L10.8195 10.559L5.40674 19.4867L13.3626 13.0839L13.3716 13.0749V13.0658L19.5111 4.98276L19.5111 4.98267Z" fill="black" fill-opacity="0.05"/>
</g>
<path d="M19.3474 4.46509L10.7739 10.5591L13.3169 13.0839L19.3474 4.46509Z" fill="#CD151E"/>
<path d="M10.783 10.541L12.0636 11.8034L19.3473 4.46509L10.783 10.541Z" fill="#FA5153"/>
<path d="M10.7829 10.5411L13.3259 13.0658L4.75244 19.1599L10.7829 10.541V10.5411Z" fill="#ACACAC"/>
<path d="M4.75244 19.1599L12.0634 11.8035L10.7828 10.541L4.75244 19.1599Z" fill="#EEEEEE"/>
</g>
<defs>
<filter id="filter0_d_271_338" x="-3.625" y="-1.8125" width="31.25" height="31.25" filterUnits="userSpaceOnUse" color-interpolation-filters="sRGB">
<feFlood flood-opacity="0" result="BackgroundImageFix"/>
<feColorMatrix in="SourceAlpha" type="matrix" values="0 0 0 0 0 0 0 0 0 0 0 0 0 0 0 0 0 0 127 0" result="hardAlpha"/>
<feOffset dy="2"/>
<feGaussianBlur stdDeviation="2"/>
<feColorMatrix type="matrix" values="0 0 0 0 0 0 0 0 0 0 0 0 0 0 0 0 0 0 0.266007 0"/>
<feBlend mode="normal" in2="BackgroundImageFix" result="effect1_dropShadow_271_338"/>
<feBlend mode="normal" in="SourceGraphic" in2="effect1_dropShadow_271_338" result="shape"/>
</filter>
<filter id="filter1_d_271_338" x="1.40674" y="1.98267" width="22.1045" height="22.5042" filterUnits="userSpaceOnUse" color-interpolation-filters="sRGB">
<feFlood flood-opacity="0" result="BackgroundImageFix"/>
<feColorMatrix in="SourceAlpha" type="matrix" values="0 0 0 0 0 0 0 0 0 0 0 0 0 0 0 0 0 0 127 0" result="hardAlpha"/>
<feOffset dy="1"/>
<feGaussianBlur stdDeviation="2"/>
<feColorMatrix type="matrix" values="0 0 0 0 0 0 0 0 0 0 0 0 0 0 0 0 0 0 1 0"/>
<feBlend mode="normal" in2="BackgroundImageFix" result="effect1_dropShadow_271_338"/>
<feBlend mode="normal" in="SourceGraphic" in2="effect1_dropShadow_271_338" result="shape"/>
</filter>
<linearGradient id="paint0_linear_271_338" x1="12" y1="23.4375" x2="12" y2="0.1875" gradientUnits="userSpaceOnUse">
<stop offset="0.25" stop-color="#DBDBDA"/>
<stop offset="1" stop-color="white"/>
</linearGradient>
<radialGradient id="paint1_radial_271_338" cx="0" cy="0" r="1" gradientUnits="userSpaceOnUse" gradientTransform="translate(13.5108 9.45042) scale(13.1257)">
<stop stop-color="#2ABCE1"/>
<stop offset="0.11363" stop-color="#2ABBE1"/>
<stop offset="1" stop-color="#3375F8"/>
</radialGradient>
<linearGradient id="paint2_linear_271_338" x1="11.8594" y1="8.72867" x2="6.84045" y2="17.7331" gradientUnits="userSpaceOnUse">
<stop stop-opacity="0"/>
<stop offset="1"/>
</linearGradient>
<clipPath id="clip0_271_338">
<rect width="24" height="24" fill="white"/>
</clipPath>
</defs>
</svg>
