<svg width="31" height="30" viewBox="0 0 31 30" fill="none" xmlns="http://www.w3.org/2000/svg">
<g clip-path="url(#clip0_271_672)">
<path d="M2.22393 0.991941L12.8953 29.1656C12.9829 29.3986 13.2092 29.5546 13.4585 29.5546L13.5096 29.5526C13.7763 29.5305 13.9977 29.3312 14.0487 29.0674L16.5779 16.0651L28.5067 13.7612C28.7628 13.7112 28.9563 13.5051 28.9891 13.249C29.0228 12.992 28.8889 12.7436 28.6559 12.63L3.11835 0.187061L3.11546 0.18321L3.11353 0.184173L3.01052 0.135072C2.79197 0.0272409 2.51854 0.0686402 2.34139 0.230386C2.16039 0.394058 2.09684 0.656895 2.18446 0.886998L2.22104 0.984239L2.21815 0.986164L2.22393 0.991941ZM26.509 12.9217L16.2853 14.8963L5.24223 2.56223L26.509 12.9217ZM15.4188 15.732L13.2727 26.7616L4.45468 3.48456L15.4188 15.732Z" fill="#2196F3"/>
</g>
<defs>
<clipPath id="clip0_271_672">
<rect width="29.4792" height="29.4792" fill="white" transform="translate(0.829834 0.0754395)"/>
</clipPath>
</defs>
</svg>
