<svg width="24" height="26" viewBox="0 0 24 26" fill="none" xmlns="http://www.w3.org/2000/svg">
<path d="M12.0036 14.7983C4.30913 14.7983 0.0715332 18.4384 0.0715332 25.0481C0.0715332 25.5643 0.489926 25.9827 1.00615 25.9827H23.001C23.5172 25.9827 23.9356 25.5643 23.9356 25.0481C23.9357 18.4387 19.6981 14.7983 12.0036 14.7983ZM1.97478 24.1135C2.34241 19.1715 5.71171 16.6676 12.0036 16.6676C18.2955 16.6676 21.6649 19.1715 22.0328 24.1135H1.97478Z" fill="#2196F3"/>
<path d="M12.0036 0.373779C8.46917 0.373779 5.80396 3.09261 5.80396 6.69779C5.80396 10.4086 8.58511 13.4271 12.0036 13.4271C15.4221 13.4271 18.2033 10.4086 18.2033 6.69809C18.2033 3.09261 15.5381 0.373779 12.0036 0.373779ZM12.0036 11.5582C9.61566 11.5582 7.67319 9.37796 7.67319 6.69809C7.67319 4.11666 9.49447 2.24302 12.0036 2.24302C14.4726 2.24302 16.3341 4.15807 16.3341 6.69809C16.3341 9.37796 14.3916 11.5582 12.0036 11.5582Z" fill="#2196F3"/>
</svg>
